<mxfile host="app.diagrams.net" agent="Mozilla/5.0 (Windows NT 10.0; Win64; x64) AppleWebKit/537.36 (KHTML, like Gecko) Chrome/136.0.0.0 Safari/537.36 Edg/136.0.0.0" version="27.1.1">
  <diagram name="Stránka-1" id="pwyrHVY0Fj-PbS3-Ldx_">
    <mxGraphModel dx="6499" dy="4345" grid="1" gridSize="10" guides="1" tooltips="1" connect="1" arrows="1" fold="1" page="1" pageScale="1" pageWidth="827" pageHeight="1169" math="0" shadow="0">
      <root>
        <mxCell id="0" />
        <mxCell id="1" parent="0" />
        <mxCell id="jSnhueOkiro6R8cV-VZZ-25" value="" style="edgeStyle=orthogonalEdgeStyle;rounded=0;orthogonalLoop=1;jettySize=auto;html=1;" edge="1" parent="1" source="jSnhueOkiro6R8cV-VZZ-1" target="jSnhueOkiro6R8cV-VZZ-2">
          <mxGeometry relative="1" as="geometry" />
        </mxCell>
        <mxCell id="jSnhueOkiro6R8cV-VZZ-1" value="&lt;font style=&quot;font-size: 25px;&quot;&gt;&lt;b&gt;ISO/OSI&lt;/b&gt;&lt;/font&gt;" style="rounded=0;whiteSpace=wrap;html=1;fillColor=#e51400;fontColor=#ffffff;strokeColor=#B20000;" vertex="1" parent="1">
          <mxGeometry x="404" y="-790" width="120" height="60" as="geometry" />
        </mxCell>
        <mxCell id="jSnhueOkiro6R8cV-VZZ-12" value="" style="edgeStyle=orthogonalEdgeStyle;rounded=0;orthogonalLoop=1;jettySize=auto;html=1;" edge="1" parent="1" source="jSnhueOkiro6R8cV-VZZ-2" target="jSnhueOkiro6R8cV-VZZ-9">
          <mxGeometry relative="1" as="geometry" />
        </mxCell>
        <mxCell id="jSnhueOkiro6R8cV-VZZ-14" value="" style="edgeStyle=orthogonalEdgeStyle;rounded=0;orthogonalLoop=1;jettySize=auto;html=1;" edge="1" parent="1" source="jSnhueOkiro6R8cV-VZZ-2" target="jSnhueOkiro6R8cV-VZZ-13">
          <mxGeometry relative="1" as="geometry" />
        </mxCell>
        <mxCell id="jSnhueOkiro6R8cV-VZZ-44" style="edgeStyle=orthogonalEdgeStyle;rounded=0;orthogonalLoop=1;jettySize=auto;html=1;" edge="1" parent="1" source="jSnhueOkiro6R8cV-VZZ-2" target="jSnhueOkiro6R8cV-VZZ-3">
          <mxGeometry relative="1" as="geometry" />
        </mxCell>
        <mxCell id="jSnhueOkiro6R8cV-VZZ-2" value="&lt;font style=&quot;font-size: 20px;&quot;&gt;&lt;b&gt;Aplikační&lt;/b&gt;&lt;/font&gt;" style="rounded=0;whiteSpace=wrap;html=1;fillColor=#dae8fc;strokeColor=#6c8ebf;" vertex="1" parent="1">
          <mxGeometry x="404" y="-650" width="120" height="60" as="geometry" />
        </mxCell>
        <mxCell id="jSnhueOkiro6R8cV-VZZ-47" value="" style="edgeStyle=orthogonalEdgeStyle;rounded=0;orthogonalLoop=1;jettySize=auto;html=1;" edge="1" parent="1" source="jSnhueOkiro6R8cV-VZZ-3" target="jSnhueOkiro6R8cV-VZZ-46">
          <mxGeometry relative="1" as="geometry" />
        </mxCell>
        <mxCell id="jSnhueOkiro6R8cV-VZZ-49" style="edgeStyle=orthogonalEdgeStyle;rounded=0;orthogonalLoop=1;jettySize=auto;html=1;" edge="1" parent="1" source="jSnhueOkiro6R8cV-VZZ-3" target="jSnhueOkiro6R8cV-VZZ-48">
          <mxGeometry relative="1" as="geometry" />
        </mxCell>
        <mxCell id="jSnhueOkiro6R8cV-VZZ-83" style="edgeStyle=orthogonalEdgeStyle;rounded=0;orthogonalLoop=1;jettySize=auto;html=1;entryX=0.5;entryY=0;entryDx=0;entryDy=0;" edge="1" parent="1" source="jSnhueOkiro6R8cV-VZZ-3" target="jSnhueOkiro6R8cV-VZZ-4">
          <mxGeometry relative="1" as="geometry" />
        </mxCell>
        <mxCell id="jSnhueOkiro6R8cV-VZZ-3" value="&lt;font style=&quot;font-size: 20px;&quot;&gt;&lt;b&gt;Prezenční&lt;/b&gt;&lt;/font&gt;" style="rounded=0;whiteSpace=wrap;html=1;fillColor=#d5e8d4;strokeColor=#82b366;" vertex="1" parent="1">
          <mxGeometry x="404" y="-140" width="120" height="60" as="geometry" />
        </mxCell>
        <mxCell id="jSnhueOkiro6R8cV-VZZ-86" style="edgeStyle=orthogonalEdgeStyle;rounded=0;orthogonalLoop=1;jettySize=auto;html=1;entryX=0;entryY=0.5;entryDx=0;entryDy=0;" edge="1" parent="1" source="jSnhueOkiro6R8cV-VZZ-4" target="jSnhueOkiro6R8cV-VZZ-84">
          <mxGeometry relative="1" as="geometry" />
        </mxCell>
        <mxCell id="jSnhueOkiro6R8cV-VZZ-88" style="edgeStyle=orthogonalEdgeStyle;rounded=0;orthogonalLoop=1;jettySize=auto;html=1;" edge="1" parent="1" source="jSnhueOkiro6R8cV-VZZ-4" target="jSnhueOkiro6R8cV-VZZ-87">
          <mxGeometry relative="1" as="geometry" />
        </mxCell>
        <mxCell id="jSnhueOkiro6R8cV-VZZ-89" style="edgeStyle=orthogonalEdgeStyle;rounded=0;orthogonalLoop=1;jettySize=auto;html=1;entryX=0.5;entryY=0;entryDx=0;entryDy=0;" edge="1" parent="1" source="jSnhueOkiro6R8cV-VZZ-4" target="jSnhueOkiro6R8cV-VZZ-5">
          <mxGeometry relative="1" as="geometry" />
        </mxCell>
        <mxCell id="jSnhueOkiro6R8cV-VZZ-4" value="&lt;font style=&quot;font-size: 20px;&quot;&gt;&lt;b&gt;Relační&lt;/b&gt;&lt;/font&gt;" style="rounded=0;whiteSpace=wrap;html=1;fillColor=#ffe6cc;strokeColor=#d79b00;" vertex="1" parent="1">
          <mxGeometry x="404" y="370" width="120" height="60" as="geometry" />
        </mxCell>
        <mxCell id="jSnhueOkiro6R8cV-VZZ-91" style="edgeStyle=orthogonalEdgeStyle;rounded=0;orthogonalLoop=1;jettySize=auto;html=1;entryX=0;entryY=0.5;entryDx=0;entryDy=0;" edge="1" parent="1" source="jSnhueOkiro6R8cV-VZZ-5" target="jSnhueOkiro6R8cV-VZZ-90">
          <mxGeometry relative="1" as="geometry" />
        </mxCell>
        <mxCell id="jSnhueOkiro6R8cV-VZZ-93" style="edgeStyle=orthogonalEdgeStyle;rounded=0;orthogonalLoop=1;jettySize=auto;html=1;entryX=1;entryY=0.5;entryDx=0;entryDy=0;" edge="1" parent="1" source="jSnhueOkiro6R8cV-VZZ-5" target="jSnhueOkiro6R8cV-VZZ-92">
          <mxGeometry relative="1" as="geometry" />
        </mxCell>
        <mxCell id="jSnhueOkiro6R8cV-VZZ-129" style="edgeStyle=orthogonalEdgeStyle;rounded=0;orthogonalLoop=1;jettySize=auto;html=1;entryX=0;entryY=0.5;entryDx=0;entryDy=0;" edge="1" parent="1" source="jSnhueOkiro6R8cV-VZZ-5" target="jSnhueOkiro6R8cV-VZZ-128">
          <mxGeometry relative="1" as="geometry" />
        </mxCell>
        <mxCell id="jSnhueOkiro6R8cV-VZZ-141" style="edgeStyle=orthogonalEdgeStyle;rounded=0;orthogonalLoop=1;jettySize=auto;html=1;entryX=0.5;entryY=0;entryDx=0;entryDy=0;" edge="1" parent="1" source="jSnhueOkiro6R8cV-VZZ-5" target="jSnhueOkiro6R8cV-VZZ-6">
          <mxGeometry relative="1" as="geometry" />
        </mxCell>
        <mxCell id="jSnhueOkiro6R8cV-VZZ-5" value="&lt;font style=&quot;font-size: 20px;&quot;&gt;&lt;b&gt;Transportní&lt;/b&gt;&lt;/font&gt;" style="rounded=0;whiteSpace=wrap;html=1;fillColor=#fff2cc;strokeColor=#d6b656;" vertex="1" parent="1">
          <mxGeometry x="404" y="555" width="120" height="60" as="geometry" />
        </mxCell>
        <mxCell id="jSnhueOkiro6R8cV-VZZ-143" style="edgeStyle=orthogonalEdgeStyle;rounded=0;orthogonalLoop=1;jettySize=auto;html=1;entryX=0;entryY=0.5;entryDx=0;entryDy=0;" edge="1" parent="1" source="jSnhueOkiro6R8cV-VZZ-6" target="jSnhueOkiro6R8cV-VZZ-142">
          <mxGeometry relative="1" as="geometry" />
        </mxCell>
        <mxCell id="jSnhueOkiro6R8cV-VZZ-162" style="edgeStyle=orthogonalEdgeStyle;rounded=0;orthogonalLoop=1;jettySize=auto;html=1;entryX=1;entryY=0.5;entryDx=0;entryDy=0;" edge="1" parent="1" source="jSnhueOkiro6R8cV-VZZ-6" target="jSnhueOkiro6R8cV-VZZ-144">
          <mxGeometry relative="1" as="geometry" />
        </mxCell>
        <mxCell id="jSnhueOkiro6R8cV-VZZ-164" style="edgeStyle=orthogonalEdgeStyle;rounded=0;orthogonalLoop=1;jettySize=auto;html=1;exitX=1;exitY=0.5;exitDx=0;exitDy=0;entryX=0;entryY=0.5;entryDx=0;entryDy=0;" edge="1" parent="1" source="jSnhueOkiro6R8cV-VZZ-6" target="jSnhueOkiro6R8cV-VZZ-163">
          <mxGeometry relative="1" as="geometry" />
        </mxCell>
        <mxCell id="jSnhueOkiro6R8cV-VZZ-245" style="edgeStyle=orthogonalEdgeStyle;rounded=0;orthogonalLoop=1;jettySize=auto;html=1;entryX=1;entryY=0.5;entryDx=0;entryDy=0;" edge="1" parent="1" source="jSnhueOkiro6R8cV-VZZ-6" target="jSnhueOkiro6R8cV-VZZ-244">
          <mxGeometry relative="1" as="geometry" />
        </mxCell>
        <mxCell id="jSnhueOkiro6R8cV-VZZ-248" style="edgeStyle=orthogonalEdgeStyle;rounded=0;orthogonalLoop=1;jettySize=auto;html=1;" edge="1" parent="1" source="jSnhueOkiro6R8cV-VZZ-6" target="jSnhueOkiro6R8cV-VZZ-7">
          <mxGeometry relative="1" as="geometry" />
        </mxCell>
        <mxCell id="jSnhueOkiro6R8cV-VZZ-6" value="&lt;font style=&quot;font-size: 20px;&quot;&gt;&lt;b&gt;Síťová&lt;/b&gt;&lt;/font&gt;" style="rounded=0;whiteSpace=wrap;html=1;fillColor=#f8cecc;strokeColor=#b85450;" vertex="1" parent="1">
          <mxGeometry x="404" y="1210" width="120" height="60" as="geometry" />
        </mxCell>
        <mxCell id="jSnhueOkiro6R8cV-VZZ-250" value="" style="edgeStyle=orthogonalEdgeStyle;rounded=0;orthogonalLoop=1;jettySize=auto;html=1;" edge="1" parent="1" source="jSnhueOkiro6R8cV-VZZ-7" target="jSnhueOkiro6R8cV-VZZ-249">
          <mxGeometry relative="1" as="geometry" />
        </mxCell>
        <mxCell id="jSnhueOkiro6R8cV-VZZ-254" value="" style="edgeStyle=orthogonalEdgeStyle;rounded=0;orthogonalLoop=1;jettySize=auto;html=1;" edge="1" parent="1" source="jSnhueOkiro6R8cV-VZZ-7" target="jSnhueOkiro6R8cV-VZZ-253">
          <mxGeometry relative="1" as="geometry" />
        </mxCell>
        <mxCell id="jSnhueOkiro6R8cV-VZZ-264" style="edgeStyle=orthogonalEdgeStyle;rounded=0;orthogonalLoop=1;jettySize=auto;html=1;" edge="1" parent="1" source="jSnhueOkiro6R8cV-VZZ-7" target="jSnhueOkiro6R8cV-VZZ-263">
          <mxGeometry relative="1" as="geometry" />
        </mxCell>
        <mxCell id="jSnhueOkiro6R8cV-VZZ-270" style="edgeStyle=orthogonalEdgeStyle;rounded=0;orthogonalLoop=1;jettySize=auto;html=1;entryX=1;entryY=0.5;entryDx=0;entryDy=0;" edge="1" parent="1" source="jSnhueOkiro6R8cV-VZZ-7" target="jSnhueOkiro6R8cV-VZZ-269">
          <mxGeometry relative="1" as="geometry" />
        </mxCell>
        <mxCell id="jSnhueOkiro6R8cV-VZZ-271" style="edgeStyle=orthogonalEdgeStyle;rounded=0;orthogonalLoop=1;jettySize=auto;html=1;entryX=0.5;entryY=0;entryDx=0;entryDy=0;" edge="1" parent="1" source="jSnhueOkiro6R8cV-VZZ-7" target="jSnhueOkiro6R8cV-VZZ-8">
          <mxGeometry relative="1" as="geometry" />
        </mxCell>
        <mxCell id="jSnhueOkiro6R8cV-VZZ-293" style="edgeStyle=orthogonalEdgeStyle;rounded=0;orthogonalLoop=1;jettySize=auto;html=1;entryX=0;entryY=0.5;entryDx=0;entryDy=0;" edge="1" parent="1" source="jSnhueOkiro6R8cV-VZZ-7" target="jSnhueOkiro6R8cV-VZZ-288">
          <mxGeometry relative="1" as="geometry" />
        </mxCell>
        <mxCell id="jSnhueOkiro6R8cV-VZZ-7" value="&lt;b&gt;&lt;font style=&quot;font-size: 20px;&quot;&gt;Linková&lt;/font&gt;&lt;/b&gt;" style="rounded=0;whiteSpace=wrap;html=1;fillColor=#e1d5e7;strokeColor=#9673a6;" vertex="1" parent="1">
          <mxGeometry x="404" y="2040" width="120" height="60" as="geometry" />
        </mxCell>
        <mxCell id="jSnhueOkiro6R8cV-VZZ-304" style="edgeStyle=orthogonalEdgeStyle;rounded=0;orthogonalLoop=1;jettySize=auto;html=1;entryX=0;entryY=0.5;entryDx=0;entryDy=0;" edge="1" parent="1" source="jSnhueOkiro6R8cV-VZZ-8" target="jSnhueOkiro6R8cV-VZZ-303">
          <mxGeometry relative="1" as="geometry" />
        </mxCell>
        <mxCell id="jSnhueOkiro6R8cV-VZZ-308" value="" style="edgeStyle=orthogonalEdgeStyle;rounded=0;orthogonalLoop=1;jettySize=auto;html=1;" edge="1" parent="1" source="jSnhueOkiro6R8cV-VZZ-8" target="jSnhueOkiro6R8cV-VZZ-307">
          <mxGeometry relative="1" as="geometry" />
        </mxCell>
        <mxCell id="jSnhueOkiro6R8cV-VZZ-345" value="" style="edgeStyle=orthogonalEdgeStyle;rounded=0;orthogonalLoop=1;jettySize=auto;html=1;" edge="1" parent="1" source="jSnhueOkiro6R8cV-VZZ-8" target="jSnhueOkiro6R8cV-VZZ-344">
          <mxGeometry relative="1" as="geometry" />
        </mxCell>
        <mxCell id="jSnhueOkiro6R8cV-VZZ-378" style="edgeStyle=orthogonalEdgeStyle;rounded=0;orthogonalLoop=1;jettySize=auto;html=1;entryX=1;entryY=0.5;entryDx=0;entryDy=0;" edge="1" parent="1" source="jSnhueOkiro6R8cV-VZZ-8" target="jSnhueOkiro6R8cV-VZZ-377">
          <mxGeometry relative="1" as="geometry">
            <Array as="points">
              <mxPoint x="464" y="2923" />
            </Array>
          </mxGeometry>
        </mxCell>
        <mxCell id="jSnhueOkiro6R8cV-VZZ-390" style="edgeStyle=orthogonalEdgeStyle;rounded=0;orthogonalLoop=1;jettySize=auto;html=1;entryX=0.5;entryY=0;entryDx=0;entryDy=0;" edge="1" parent="1" source="jSnhueOkiro6R8cV-VZZ-8" target="jSnhueOkiro6R8cV-VZZ-389">
          <mxGeometry relative="1" as="geometry" />
        </mxCell>
        <mxCell id="jSnhueOkiro6R8cV-VZZ-397" style="edgeStyle=orthogonalEdgeStyle;rounded=0;orthogonalLoop=1;jettySize=auto;html=1;entryX=1;entryY=0.5;entryDx=0;entryDy=0;" edge="1" parent="1" source="jSnhueOkiro6R8cV-VZZ-8" target="jSnhueOkiro6R8cV-VZZ-396">
          <mxGeometry relative="1" as="geometry">
            <Array as="points">
              <mxPoint x="464" y="3060" />
              <mxPoint x="370" y="3060" />
              <mxPoint x="370" y="3140" />
            </Array>
          </mxGeometry>
        </mxCell>
        <mxCell id="jSnhueOkiro6R8cV-VZZ-8" value="&lt;b&gt;&lt;font style=&quot;font-size: 20px;&quot;&gt;Fyzická&lt;/font&gt;&lt;/b&gt;" style="rounded=0;whiteSpace=wrap;html=1;fillColor=#f5f5f5;fontColor=#333333;strokeColor=#666666;" vertex="1" parent="1">
          <mxGeometry x="404" y="2790" width="120" height="60" as="geometry" />
        </mxCell>
        <mxCell id="jSnhueOkiro6R8cV-VZZ-11" value="" style="edgeStyle=orthogonalEdgeStyle;rounded=0;orthogonalLoop=1;jettySize=auto;html=1;" edge="1" parent="1" source="jSnhueOkiro6R8cV-VZZ-9" target="jSnhueOkiro6R8cV-VZZ-10">
          <mxGeometry relative="1" as="geometry" />
        </mxCell>
        <mxCell id="jSnhueOkiro6R8cV-VZZ-9" value="&lt;b&gt;Funkce:&lt;/b&gt;&lt;div&gt;Poskytuje rozhraní a služby pro komunikaci aplikací&lt;br&gt;&lt;div&gt;Identifikace komunikující aplikace&lt;/div&gt;&lt;div&gt;Autentizace a autorizace&lt;/div&gt;&lt;div&gt;Zabezpečení komunikace&lt;/div&gt;&lt;div&gt;Zpracovávání požadavků a odpovědí&lt;/div&gt;&lt;div&gt;Formátování a prezence dat&lt;/div&gt;&lt;/div&gt;" style="rounded=0;whiteSpace=wrap;html=1;fillColor=#cdeb8b;strokeColor=#36393d;" vertex="1" parent="1">
          <mxGeometry x="580" y="-675" width="300" height="110" as="geometry" />
        </mxCell>
        <mxCell id="jSnhueOkiro6R8cV-VZZ-10" value="&lt;b&gt;PDU&lt;/b&gt;&lt;div&gt;Data&lt;/div&gt;" style="rounded=0;whiteSpace=wrap;html=1;fillColor=#cdeb8b;strokeColor=#36393d;" vertex="1" parent="1">
          <mxGeometry x="670" y="-530" width="120" height="60" as="geometry" />
        </mxCell>
        <mxCell id="jSnhueOkiro6R8cV-VZZ-30" style="edgeStyle=orthogonalEdgeStyle;rounded=0;orthogonalLoop=1;jettySize=auto;html=1;entryX=1;entryY=0.5;entryDx=0;entryDy=0;" edge="1" parent="1" source="jSnhueOkiro6R8cV-VZZ-13" target="jSnhueOkiro6R8cV-VZZ-21">
          <mxGeometry relative="1" as="geometry" />
        </mxCell>
        <mxCell id="jSnhueOkiro6R8cV-VZZ-31" style="edgeStyle=orthogonalEdgeStyle;rounded=0;orthogonalLoop=1;jettySize=auto;html=1;entryX=1;entryY=0.75;entryDx=0;entryDy=0;" edge="1" parent="1" source="jSnhueOkiro6R8cV-VZZ-13" target="jSnhueOkiro6R8cV-VZZ-22">
          <mxGeometry relative="1" as="geometry" />
        </mxCell>
        <mxCell id="jSnhueOkiro6R8cV-VZZ-32" style="edgeStyle=orthogonalEdgeStyle;rounded=0;orthogonalLoop=1;jettySize=auto;html=1;entryX=1;entryY=0.5;entryDx=0;entryDy=0;" edge="1" parent="1" source="jSnhueOkiro6R8cV-VZZ-13" target="jSnhueOkiro6R8cV-VZZ-20">
          <mxGeometry relative="1" as="geometry" />
        </mxCell>
        <mxCell id="jSnhueOkiro6R8cV-VZZ-33" style="edgeStyle=orthogonalEdgeStyle;rounded=0;orthogonalLoop=1;jettySize=auto;html=1;entryX=1;entryY=0.5;entryDx=0;entryDy=0;" edge="1" parent="1" source="jSnhueOkiro6R8cV-VZZ-13" target="jSnhueOkiro6R8cV-VZZ-23">
          <mxGeometry relative="1" as="geometry" />
        </mxCell>
        <mxCell id="jSnhueOkiro6R8cV-VZZ-34" style="edgeStyle=orthogonalEdgeStyle;rounded=0;orthogonalLoop=1;jettySize=auto;html=1;entryX=1;entryY=0.5;entryDx=0;entryDy=0;" edge="1" parent="1" source="jSnhueOkiro6R8cV-VZZ-13" target="jSnhueOkiro6R8cV-VZZ-24">
          <mxGeometry relative="1" as="geometry" />
        </mxCell>
        <mxCell id="jSnhueOkiro6R8cV-VZZ-35" style="edgeStyle=orthogonalEdgeStyle;rounded=0;orthogonalLoop=1;jettySize=auto;html=1;entryX=1;entryY=0.5;entryDx=0;entryDy=0;" edge="1" parent="1" source="jSnhueOkiro6R8cV-VZZ-13" target="jSnhueOkiro6R8cV-VZZ-26">
          <mxGeometry relative="1" as="geometry" />
        </mxCell>
        <mxCell id="jSnhueOkiro6R8cV-VZZ-36" style="edgeStyle=orthogonalEdgeStyle;rounded=0;orthogonalLoop=1;jettySize=auto;html=1;entryX=1;entryY=0.5;entryDx=0;entryDy=0;" edge="1" parent="1" source="jSnhueOkiro6R8cV-VZZ-13" target="jSnhueOkiro6R8cV-VZZ-27">
          <mxGeometry relative="1" as="geometry" />
        </mxCell>
        <mxCell id="jSnhueOkiro6R8cV-VZZ-37" style="edgeStyle=orthogonalEdgeStyle;rounded=0;orthogonalLoop=1;jettySize=auto;html=1;entryX=1;entryY=0.5;entryDx=0;entryDy=0;" edge="1" parent="1" source="jSnhueOkiro6R8cV-VZZ-13" target="jSnhueOkiro6R8cV-VZZ-28">
          <mxGeometry relative="1" as="geometry" />
        </mxCell>
        <mxCell id="jSnhueOkiro6R8cV-VZZ-38" style="edgeStyle=orthogonalEdgeStyle;rounded=0;orthogonalLoop=1;jettySize=auto;html=1;entryX=1;entryY=0.5;entryDx=0;entryDy=0;" edge="1" parent="1" source="jSnhueOkiro6R8cV-VZZ-13" target="jSnhueOkiro6R8cV-VZZ-29">
          <mxGeometry relative="1" as="geometry" />
        </mxCell>
        <mxCell id="jSnhueOkiro6R8cV-VZZ-39" style="edgeStyle=orthogonalEdgeStyle;rounded=0;orthogonalLoop=1;jettySize=auto;html=1;entryX=1;entryY=0.5;entryDx=0;entryDy=0;" edge="1" parent="1" source="jSnhueOkiro6R8cV-VZZ-13" target="jSnhueOkiro6R8cV-VZZ-19">
          <mxGeometry relative="1" as="geometry" />
        </mxCell>
        <mxCell id="jSnhueOkiro6R8cV-VZZ-40" style="edgeStyle=orthogonalEdgeStyle;rounded=0;orthogonalLoop=1;jettySize=auto;html=1;entryX=1;entryY=0.5;entryDx=0;entryDy=0;" edge="1" parent="1" source="jSnhueOkiro6R8cV-VZZ-13" target="jSnhueOkiro6R8cV-VZZ-18">
          <mxGeometry relative="1" as="geometry" />
        </mxCell>
        <mxCell id="jSnhueOkiro6R8cV-VZZ-41" style="edgeStyle=orthogonalEdgeStyle;rounded=0;orthogonalLoop=1;jettySize=auto;html=1;entryX=1;entryY=0.5;entryDx=0;entryDy=0;" edge="1" parent="1" source="jSnhueOkiro6R8cV-VZZ-13" target="jSnhueOkiro6R8cV-VZZ-17">
          <mxGeometry relative="1" as="geometry" />
        </mxCell>
        <mxCell id="jSnhueOkiro6R8cV-VZZ-42" style="edgeStyle=orthogonalEdgeStyle;rounded=0;orthogonalLoop=1;jettySize=auto;html=1;entryX=1;entryY=0.5;entryDx=0;entryDy=0;" edge="1" parent="1" source="jSnhueOkiro6R8cV-VZZ-13" target="jSnhueOkiro6R8cV-VZZ-16">
          <mxGeometry relative="1" as="geometry" />
        </mxCell>
        <mxCell id="jSnhueOkiro6R8cV-VZZ-43" style="edgeStyle=orthogonalEdgeStyle;rounded=0;orthogonalLoop=1;jettySize=auto;html=1;entryX=1;entryY=0.5;entryDx=0;entryDy=0;" edge="1" parent="1" source="jSnhueOkiro6R8cV-VZZ-13" target="jSnhueOkiro6R8cV-VZZ-15">
          <mxGeometry relative="1" as="geometry" />
        </mxCell>
        <mxCell id="jSnhueOkiro6R8cV-VZZ-13" value="&lt;b&gt;Protokoly a porty&lt;/b&gt;" style="rounded=0;whiteSpace=wrap;html=1;fillColor=#f9f7ed;strokeColor=#36393d;" vertex="1" parent="1">
          <mxGeometry x="220" y="-777.5" width="120" height="60" as="geometry" />
        </mxCell>
        <mxCell id="jSnhueOkiro6R8cV-VZZ-15" value="HTTP (80)&lt;div&gt;Přenos webových stránek&lt;/div&gt;" style="rounded=0;whiteSpace=wrap;html=1;" vertex="1" parent="1">
          <mxGeometry x="-40" y="-1150" width="160" height="40" as="geometry" />
        </mxCell>
        <mxCell id="jSnhueOkiro6R8cV-VZZ-16" value="HTTPS (443)&lt;div&gt;Zabezpečený přenos webových stránek&lt;/div&gt;" style="rounded=0;whiteSpace=wrap;html=1;" vertex="1" parent="1">
          <mxGeometry x="-120" y="-1090" width="240" height="40" as="geometry" />
        </mxCell>
        <mxCell id="jSnhueOkiro6R8cV-VZZ-17" value="FTP (21)&lt;div&gt;Přenos souborů mezi klientem a serverem&lt;/div&gt;" style="rounded=0;whiteSpace=wrap;html=1;" vertex="1" parent="1">
          <mxGeometry x="-130" y="-1030" width="250" height="40" as="geometry" />
        </mxCell>
        <mxCell id="jSnhueOkiro6R8cV-VZZ-18" value="SFTP (22)&lt;div&gt;Přenos souborů přes SSH&lt;/div&gt;" style="rounded=0;whiteSpace=wrap;html=1;" vertex="1" parent="1">
          <mxGeometry x="-40" y="-970" width="160" height="40" as="geometry" />
        </mxCell>
        <mxCell id="jSnhueOkiro6R8cV-VZZ-19" value="TFTP (69)&lt;div&gt;Jednoduchý přenos souborů bez autentizace&lt;/div&gt;" style="rounded=0;whiteSpace=wrap;html=1;" vertex="1" parent="1">
          <mxGeometry x="-150" y="-910" width="270" height="40" as="geometry" />
        </mxCell>
        <mxCell id="jSnhueOkiro6R8cV-VZZ-20" value="SMTP (25)&lt;div&gt;Odesílání e-mailů&lt;/div&gt;" style="rounded=0;whiteSpace=wrap;html=1;" vertex="1" parent="1">
          <mxGeometry y="-855" width="120" height="40" as="geometry" />
        </mxCell>
        <mxCell id="jSnhueOkiro6R8cV-VZZ-21" value="POP3 (110)&lt;div&gt;Stahování e-mailů&lt;/div&gt;" style="rounded=0;whiteSpace=wrap;html=1;" vertex="1" parent="1">
          <mxGeometry y="-740" width="120" height="40" as="geometry" />
        </mxCell>
        <mxCell id="jSnhueOkiro6R8cV-VZZ-22" value="IMAP (143)&lt;div&gt;Práce s e-maily na serveru&lt;/div&gt;" style="rounded=0;whiteSpace=wrap;html=1;" vertex="1" parent="1">
          <mxGeometry x="-50" y="-800" width="170" height="40" as="geometry" />
        </mxCell>
        <mxCell id="jSnhueOkiro6R8cV-VZZ-23" value="DNS (53)&lt;div&gt;Překlad domén na IP adresy&lt;/div&gt;" style="rounded=0;whiteSpace=wrap;html=1;" vertex="1" parent="1">
          <mxGeometry x="-60" y="-680" width="180" height="40" as="geometry" />
        </mxCell>
        <mxCell id="jSnhueOkiro6R8cV-VZZ-24" value="DHCP (67), (68)&lt;div&gt;Automatické přidělení IP adres&lt;/div&gt;" style="rounded=0;whiteSpace=wrap;html=1;" vertex="1" parent="1">
          <mxGeometry x="-70" y="-620" width="190" height="40" as="geometry" />
        </mxCell>
        <mxCell id="jSnhueOkiro6R8cV-VZZ-26" value="Telnet (23)&lt;div&gt;Vzdálený přístup k terminálu (nezabezpeč.)&lt;/div&gt;" style="rounded=0;whiteSpace=wrap;html=1;" vertex="1" parent="1">
          <mxGeometry x="-150" y="-565" width="270" height="40" as="geometry" />
        </mxCell>
        <mxCell id="jSnhueOkiro6R8cV-VZZ-27" value="SSH (22)&lt;div&gt;Zabezpečený vzálený přistup&lt;/div&gt;" style="rounded=0;whiteSpace=wrap;html=1;" vertex="1" parent="1">
          <mxGeometry x="-70" y="-505" width="190" height="40" as="geometry" />
        </mxCell>
        <mxCell id="jSnhueOkiro6R8cV-VZZ-28" value="SNMP (161), (162)&lt;div&gt;Monitorování a správa síťových zařízení&lt;/div&gt;" style="rounded=0;whiteSpace=wrap;html=1;" vertex="1" parent="1">
          <mxGeometry x="-110" y="-445" width="230" height="40" as="geometry" />
        </mxCell>
        <mxCell id="jSnhueOkiro6R8cV-VZZ-29" value="NTP (123)&lt;div&gt;Synchronizace času&lt;/div&gt;" style="rounded=0;whiteSpace=wrap;html=1;" vertex="1" parent="1">
          <mxGeometry y="-385" width="120" height="40" as="geometry" />
        </mxCell>
        <mxCell id="jSnhueOkiro6R8cV-VZZ-46" value="&lt;b&gt;Funkce:&lt;/b&gt;&lt;div&gt;Zajišťuje čitelnost a srozumitelnost dat&lt;/div&gt;&lt;div&gt;Převádí datový formát&lt;/div&gt;&lt;div&gt;Kóduje a dekóduje data&lt;/div&gt;&lt;div&gt;Komprese dat&lt;/div&gt;" style="rounded=0;whiteSpace=wrap;html=1;fillColor=#cdeb8b;strokeColor=#36393d;" vertex="1" parent="1">
          <mxGeometry x="560" y="-240" width="240" height="80" as="geometry" />
        </mxCell>
        <mxCell id="jSnhueOkiro6R8cV-VZZ-66" style="edgeStyle=orthogonalEdgeStyle;rounded=0;orthogonalLoop=1;jettySize=auto;html=1;entryX=1;entryY=0.5;entryDx=0;entryDy=0;" edge="1" parent="1" source="jSnhueOkiro6R8cV-VZZ-48" target="jSnhueOkiro6R8cV-VZZ-50">
          <mxGeometry relative="1" as="geometry" />
        </mxCell>
        <mxCell id="jSnhueOkiro6R8cV-VZZ-67" style="edgeStyle=orthogonalEdgeStyle;rounded=0;orthogonalLoop=1;jettySize=auto;html=1;entryX=1;entryY=0.5;entryDx=0;entryDy=0;" edge="1" parent="1" source="jSnhueOkiro6R8cV-VZZ-48" target="jSnhueOkiro6R8cV-VZZ-51">
          <mxGeometry relative="1" as="geometry" />
        </mxCell>
        <mxCell id="jSnhueOkiro6R8cV-VZZ-74" style="edgeStyle=orthogonalEdgeStyle;rounded=0;orthogonalLoop=1;jettySize=auto;html=1;entryX=1;entryY=0.5;entryDx=0;entryDy=0;" edge="1" parent="1" source="jSnhueOkiro6R8cV-VZZ-48" target="jSnhueOkiro6R8cV-VZZ-68">
          <mxGeometry relative="1" as="geometry" />
        </mxCell>
        <mxCell id="jSnhueOkiro6R8cV-VZZ-82" style="edgeStyle=orthogonalEdgeStyle;rounded=0;orthogonalLoop=1;jettySize=auto;html=1;entryX=1;entryY=0.5;entryDx=0;entryDy=0;" edge="1" parent="1" source="jSnhueOkiro6R8cV-VZZ-48" target="jSnhueOkiro6R8cV-VZZ-75">
          <mxGeometry relative="1" as="geometry" />
        </mxCell>
        <mxCell id="jSnhueOkiro6R8cV-VZZ-48" value="&lt;b&gt;Technologie a formáty&lt;/b&gt;" style="rounded=0;whiteSpace=wrap;html=1;" vertex="1" parent="1">
          <mxGeometry x="240" y="-230" width="120" height="60" as="geometry" />
        </mxCell>
        <mxCell id="jSnhueOkiro6R8cV-VZZ-56" style="edgeStyle=orthogonalEdgeStyle;rounded=0;orthogonalLoop=1;jettySize=auto;html=1;entryX=1;entryY=0.5;entryDx=0;entryDy=0;" edge="1" parent="1" source="jSnhueOkiro6R8cV-VZZ-50" target="jSnhueOkiro6R8cV-VZZ-52">
          <mxGeometry relative="1" as="geometry" />
        </mxCell>
        <mxCell id="jSnhueOkiro6R8cV-VZZ-57" style="edgeStyle=orthogonalEdgeStyle;rounded=0;orthogonalLoop=1;jettySize=auto;html=1;entryX=1;entryY=0.5;entryDx=0;entryDy=0;" edge="1" parent="1" source="jSnhueOkiro6R8cV-VZZ-50" target="jSnhueOkiro6R8cV-VZZ-53">
          <mxGeometry relative="1" as="geometry" />
        </mxCell>
        <mxCell id="jSnhueOkiro6R8cV-VZZ-58" style="edgeStyle=orthogonalEdgeStyle;rounded=0;orthogonalLoop=1;jettySize=auto;html=1;" edge="1" parent="1" source="jSnhueOkiro6R8cV-VZZ-50" target="jSnhueOkiro6R8cV-VZZ-54">
          <mxGeometry relative="1" as="geometry" />
        </mxCell>
        <mxCell id="jSnhueOkiro6R8cV-VZZ-59" style="edgeStyle=orthogonalEdgeStyle;rounded=0;orthogonalLoop=1;jettySize=auto;html=1;entryX=1;entryY=0.5;entryDx=0;entryDy=0;" edge="1" parent="1" source="jSnhueOkiro6R8cV-VZZ-50" target="jSnhueOkiro6R8cV-VZZ-55">
          <mxGeometry relative="1" as="geometry" />
        </mxCell>
        <mxCell id="jSnhueOkiro6R8cV-VZZ-50" value="Formáty dat" style="rounded=0;whiteSpace=wrap;html=1;" vertex="1" parent="1">
          <mxGeometry x="20" y="-230" width="120" height="60" as="geometry" />
        </mxCell>
        <mxCell id="jSnhueOkiro6R8cV-VZZ-63" style="edgeStyle=orthogonalEdgeStyle;rounded=0;orthogonalLoop=1;jettySize=auto;html=1;entryX=1;entryY=0.5;entryDx=0;entryDy=0;" edge="1" parent="1" source="jSnhueOkiro6R8cV-VZZ-51" target="jSnhueOkiro6R8cV-VZZ-60">
          <mxGeometry relative="1" as="geometry" />
        </mxCell>
        <mxCell id="jSnhueOkiro6R8cV-VZZ-64" style="edgeStyle=orthogonalEdgeStyle;rounded=0;orthogonalLoop=1;jettySize=auto;html=1;entryX=1;entryY=0.5;entryDx=0;entryDy=0;" edge="1" parent="1" source="jSnhueOkiro6R8cV-VZZ-51" target="jSnhueOkiro6R8cV-VZZ-61">
          <mxGeometry relative="1" as="geometry" />
        </mxCell>
        <mxCell id="jSnhueOkiro6R8cV-VZZ-65" style="edgeStyle=orthogonalEdgeStyle;rounded=0;orthogonalLoop=1;jettySize=auto;html=1;entryX=1;entryY=0.5;entryDx=0;entryDy=0;" edge="1" parent="1" source="jSnhueOkiro6R8cV-VZZ-51" target="jSnhueOkiro6R8cV-VZZ-62">
          <mxGeometry relative="1" as="geometry" />
        </mxCell>
        <mxCell id="jSnhueOkiro6R8cV-VZZ-51" value="Znakové sady" style="rounded=0;whiteSpace=wrap;html=1;" vertex="1" parent="1">
          <mxGeometry x="20" y="-30" width="120" height="60" as="geometry" />
        </mxCell>
        <mxCell id="jSnhueOkiro6R8cV-VZZ-52" value=".txt" style="rounded=0;whiteSpace=wrap;html=1;" vertex="1" parent="1">
          <mxGeometry x="-100" y="-290" width="40" height="30" as="geometry" />
        </mxCell>
        <mxCell id="jSnhueOkiro6R8cV-VZZ-53" value=".jpg" style="rounded=0;whiteSpace=wrap;html=1;" vertex="1" parent="1">
          <mxGeometry x="-100" y="-240" width="40" height="30" as="geometry" />
        </mxCell>
        <mxCell id="jSnhueOkiro6R8cV-VZZ-54" value=".mp3" style="rounded=0;whiteSpace=wrap;html=1;" vertex="1" parent="1">
          <mxGeometry x="-100" y="-190" width="40" height="30" as="geometry" />
        </mxCell>
        <mxCell id="jSnhueOkiro6R8cV-VZZ-55" value=".pdf" style="rounded=0;whiteSpace=wrap;html=1;" vertex="1" parent="1">
          <mxGeometry x="-100" y="-140" width="40" height="30" as="geometry" />
        </mxCell>
        <mxCell id="jSnhueOkiro6R8cV-VZZ-60" value="ASCII" style="rounded=0;whiteSpace=wrap;html=1;" vertex="1" parent="1">
          <mxGeometry x="-110" y="-80" width="50" height="40" as="geometry" />
        </mxCell>
        <mxCell id="jSnhueOkiro6R8cV-VZZ-61" value="Unicode" style="rounded=0;whiteSpace=wrap;html=1;" vertex="1" parent="1">
          <mxGeometry x="-120" y="-20" width="60" height="40" as="geometry" />
        </mxCell>
        <mxCell id="jSnhueOkiro6R8cV-VZZ-62" value="UTF-8" style="rounded=0;whiteSpace=wrap;html=1;" vertex="1" parent="1">
          <mxGeometry x="-110" y="40" width="50" height="40" as="geometry" />
        </mxCell>
        <mxCell id="jSnhueOkiro6R8cV-VZZ-71" style="edgeStyle=orthogonalEdgeStyle;rounded=0;orthogonalLoop=1;jettySize=auto;html=1;entryX=1;entryY=0.5;entryDx=0;entryDy=0;" edge="1" parent="1" source="jSnhueOkiro6R8cV-VZZ-68" target="jSnhueOkiro6R8cV-VZZ-69">
          <mxGeometry relative="1" as="geometry" />
        </mxCell>
        <mxCell id="jSnhueOkiro6R8cV-VZZ-72" style="edgeStyle=orthogonalEdgeStyle;rounded=0;orthogonalLoop=1;jettySize=auto;html=1;" edge="1" parent="1" source="jSnhueOkiro6R8cV-VZZ-68" target="jSnhueOkiro6R8cV-VZZ-70">
          <mxGeometry relative="1" as="geometry" />
        </mxCell>
        <mxCell id="jSnhueOkiro6R8cV-VZZ-68" value="Kódování dat" style="rounded=0;whiteSpace=wrap;html=1;" vertex="1" parent="1">
          <mxGeometry x="20" y="120" width="120" height="60" as="geometry" />
        </mxCell>
        <mxCell id="jSnhueOkiro6R8cV-VZZ-69" value="MIME" style="rounded=0;whiteSpace=wrap;html=1;" vertex="1" parent="1">
          <mxGeometry x="-120" y="110" width="60" height="30" as="geometry" />
        </mxCell>
        <mxCell id="jSnhueOkiro6R8cV-VZZ-70" value="BER" style="rounded=0;whiteSpace=wrap;html=1;" vertex="1" parent="1">
          <mxGeometry x="-110" y="160" width="50" height="30" as="geometry" />
        </mxCell>
        <mxCell id="jSnhueOkiro6R8cV-VZZ-79" style="edgeStyle=orthogonalEdgeStyle;rounded=0;orthogonalLoop=1;jettySize=auto;html=1;entryX=1;entryY=0.5;entryDx=0;entryDy=0;" edge="1" parent="1" source="jSnhueOkiro6R8cV-VZZ-75" target="jSnhueOkiro6R8cV-VZZ-77">
          <mxGeometry relative="1" as="geometry" />
        </mxCell>
        <mxCell id="jSnhueOkiro6R8cV-VZZ-80" style="edgeStyle=orthogonalEdgeStyle;rounded=0;orthogonalLoop=1;jettySize=auto;html=1;entryX=1;entryY=0.5;entryDx=0;entryDy=0;" edge="1" parent="1" source="jSnhueOkiro6R8cV-VZZ-75" target="jSnhueOkiro6R8cV-VZZ-78">
          <mxGeometry relative="1" as="geometry" />
        </mxCell>
        <mxCell id="jSnhueOkiro6R8cV-VZZ-81" style="edgeStyle=orthogonalEdgeStyle;rounded=0;orthogonalLoop=1;jettySize=auto;html=1;entryX=1;entryY=0.5;entryDx=0;entryDy=0;" edge="1" parent="1" source="jSnhueOkiro6R8cV-VZZ-75" target="jSnhueOkiro6R8cV-VZZ-76">
          <mxGeometry relative="1" as="geometry" />
        </mxCell>
        <mxCell id="jSnhueOkiro6R8cV-VZZ-75" value="Komprese dat" style="rounded=0;whiteSpace=wrap;html=1;" vertex="1" parent="1">
          <mxGeometry x="20" y="255" width="120" height="60" as="geometry" />
        </mxCell>
        <mxCell id="jSnhueOkiro6R8cV-VZZ-76" value="ZIP" style="rounded=0;whiteSpace=wrap;html=1;" vertex="1" parent="1">
          <mxGeometry x="-110" y="320" width="50" height="30" as="geometry" />
        </mxCell>
        <mxCell id="jSnhueOkiro6R8cV-VZZ-77" value="RAR" style="rounded=0;whiteSpace=wrap;html=1;" vertex="1" parent="1">
          <mxGeometry x="-110" y="270" width="50" height="30" as="geometry" />
        </mxCell>
        <mxCell id="jSnhueOkiro6R8cV-VZZ-78" value="JPEG" style="rounded=0;whiteSpace=wrap;html=1;" vertex="1" parent="1">
          <mxGeometry x="-110" y="220" width="50" height="30" as="geometry" />
        </mxCell>
        <mxCell id="jSnhueOkiro6R8cV-VZZ-84" value="&lt;b&gt;Funkce&lt;/b&gt;:&lt;div&gt;Navázání a udržení komunikační relace&lt;/div&gt;&lt;div&gt;Synchronizace komunikace&lt;/div&gt;&lt;div&gt;Správa režimů komunikace&lt;/div&gt;" style="rounded=0;whiteSpace=wrap;html=1;fillColor=#cdeb8b;strokeColor=#36393d;" vertex="1" parent="1">
          <mxGeometry x="637" y="360" width="243" height="80" as="geometry" />
        </mxCell>
        <mxCell id="jSnhueOkiro6R8cV-VZZ-87" value="Nepoužívá vlastní protokoly" style="rounded=0;whiteSpace=wrap;html=1;fillColor=#f9f7ed;strokeColor=#36393d;" vertex="1" parent="1">
          <mxGeometry x="190" y="370" width="120" height="60" as="geometry" />
        </mxCell>
        <mxCell id="jSnhueOkiro6R8cV-VZZ-138" value="" style="edgeStyle=orthogonalEdgeStyle;rounded=0;orthogonalLoop=1;jettySize=auto;html=1;" edge="1" parent="1" source="jSnhueOkiro6R8cV-VZZ-90" target="jSnhueOkiro6R8cV-VZZ-137">
          <mxGeometry relative="1" as="geometry" />
        </mxCell>
        <mxCell id="jSnhueOkiro6R8cV-VZZ-90" value="&lt;b&gt;Funkce&lt;/b&gt;:&lt;div&gt;Segmentace a reassemblace&lt;/div&gt;&lt;div&gt;Identifikace aplikačních procesů&lt;/div&gt;&lt;div&gt;Řízení spojení&lt;/div&gt;&lt;div&gt;Řízení toku&lt;/div&gt;&lt;div&gt;Řízení chyb&lt;/div&gt;" style="rounded=0;whiteSpace=wrap;html=1;fillColor=#cdeb8b;strokeColor=#36393d;" vertex="1" parent="1">
          <mxGeometry x="637" y="535" width="210" height="100" as="geometry" />
        </mxCell>
        <mxCell id="jSnhueOkiro6R8cV-VZZ-101" style="edgeStyle=orthogonalEdgeStyle;rounded=0;orthogonalLoop=1;jettySize=auto;html=1;entryX=1;entryY=0.5;entryDx=0;entryDy=0;" edge="1" parent="1" source="jSnhueOkiro6R8cV-VZZ-92" target="jSnhueOkiro6R8cV-VZZ-94">
          <mxGeometry relative="1" as="geometry" />
        </mxCell>
        <mxCell id="jSnhueOkiro6R8cV-VZZ-115" style="edgeStyle=orthogonalEdgeStyle;rounded=0;orthogonalLoop=1;jettySize=auto;html=1;entryX=1;entryY=0.5;entryDx=0;entryDy=0;" edge="1" parent="1" source="jSnhueOkiro6R8cV-VZZ-92" target="jSnhueOkiro6R8cV-VZZ-95">
          <mxGeometry relative="1" as="geometry" />
        </mxCell>
        <mxCell id="jSnhueOkiro6R8cV-VZZ-92" value="&lt;b&gt;Protokoly&lt;/b&gt;" style="rounded=0;whiteSpace=wrap;html=1;fillColor=#f9f7ed;strokeColor=#36393d;" vertex="1" parent="1">
          <mxGeometry x="190" y="555" width="120" height="60" as="geometry" />
        </mxCell>
        <mxCell id="jSnhueOkiro6R8cV-VZZ-102" style="edgeStyle=orthogonalEdgeStyle;rounded=0;orthogonalLoop=1;jettySize=auto;html=1;" edge="1" parent="1" source="jSnhueOkiro6R8cV-VZZ-94" target="jSnhueOkiro6R8cV-VZZ-96">
          <mxGeometry relative="1" as="geometry">
            <Array as="points">
              <mxPoint x="-50" y="560" />
              <mxPoint x="-50" y="460" />
            </Array>
          </mxGeometry>
        </mxCell>
        <mxCell id="jSnhueOkiro6R8cV-VZZ-103" style="edgeStyle=orthogonalEdgeStyle;rounded=0;orthogonalLoop=1;jettySize=auto;html=1;entryX=1;entryY=0.5;entryDx=0;entryDy=0;" edge="1" parent="1" source="jSnhueOkiro6R8cV-VZZ-94" target="jSnhueOkiro6R8cV-VZZ-97">
          <mxGeometry relative="1" as="geometry" />
        </mxCell>
        <mxCell id="jSnhueOkiro6R8cV-VZZ-104" style="edgeStyle=orthogonalEdgeStyle;rounded=0;orthogonalLoop=1;jettySize=auto;html=1;entryX=1;entryY=0.5;entryDx=0;entryDy=0;" edge="1" parent="1" source="jSnhueOkiro6R8cV-VZZ-94" target="jSnhueOkiro6R8cV-VZZ-98">
          <mxGeometry relative="1" as="geometry" />
        </mxCell>
        <mxCell id="jSnhueOkiro6R8cV-VZZ-105" style="edgeStyle=orthogonalEdgeStyle;rounded=0;orthogonalLoop=1;jettySize=auto;html=1;entryX=1;entryY=0.5;entryDx=0;entryDy=0;" edge="1" parent="1" source="jSnhueOkiro6R8cV-VZZ-94" target="jSnhueOkiro6R8cV-VZZ-99">
          <mxGeometry relative="1" as="geometry" />
        </mxCell>
        <mxCell id="jSnhueOkiro6R8cV-VZZ-106" style="edgeStyle=orthogonalEdgeStyle;rounded=0;orthogonalLoop=1;jettySize=auto;html=1;entryX=1;entryY=0.5;entryDx=0;entryDy=0;" edge="1" parent="1" source="jSnhueOkiro6R8cV-VZZ-94" target="jSnhueOkiro6R8cV-VZZ-100">
          <mxGeometry relative="1" as="geometry" />
        </mxCell>
        <mxCell id="jSnhueOkiro6R8cV-VZZ-94" value="&lt;b&gt;TCP&lt;/b&gt;" style="rounded=0;whiteSpace=wrap;html=1;" vertex="1" parent="1">
          <mxGeometry x="10" y="535" width="80" height="50" as="geometry" />
        </mxCell>
        <mxCell id="jSnhueOkiro6R8cV-VZZ-123" style="edgeStyle=orthogonalEdgeStyle;rounded=0;orthogonalLoop=1;jettySize=auto;html=1;entryX=1;entryY=0.5;entryDx=0;entryDy=0;" edge="1" parent="1" source="jSnhueOkiro6R8cV-VZZ-95" target="jSnhueOkiro6R8cV-VZZ-116">
          <mxGeometry relative="1" as="geometry" />
        </mxCell>
        <mxCell id="jSnhueOkiro6R8cV-VZZ-124" style="edgeStyle=orthogonalEdgeStyle;rounded=0;orthogonalLoop=1;jettySize=auto;html=1;entryX=1;entryY=0.5;entryDx=0;entryDy=0;" edge="1" parent="1" source="jSnhueOkiro6R8cV-VZZ-95" target="jSnhueOkiro6R8cV-VZZ-117">
          <mxGeometry relative="1" as="geometry" />
        </mxCell>
        <mxCell id="jSnhueOkiro6R8cV-VZZ-125" style="edgeStyle=orthogonalEdgeStyle;rounded=0;orthogonalLoop=1;jettySize=auto;html=1;entryX=1;entryY=0.5;entryDx=0;entryDy=0;" edge="1" parent="1" source="jSnhueOkiro6R8cV-VZZ-95" target="jSnhueOkiro6R8cV-VZZ-119">
          <mxGeometry relative="1" as="geometry" />
        </mxCell>
        <mxCell id="jSnhueOkiro6R8cV-VZZ-126" style="edgeStyle=orthogonalEdgeStyle;rounded=0;orthogonalLoop=1;jettySize=auto;html=1;entryX=1;entryY=0.5;entryDx=0;entryDy=0;" edge="1" parent="1" source="jSnhueOkiro6R8cV-VZZ-95" target="jSnhueOkiro6R8cV-VZZ-121">
          <mxGeometry relative="1" as="geometry" />
        </mxCell>
        <mxCell id="jSnhueOkiro6R8cV-VZZ-127" style="edgeStyle=orthogonalEdgeStyle;rounded=0;orthogonalLoop=1;jettySize=auto;html=1;entryX=1;entryY=0.5;entryDx=0;entryDy=0;" edge="1" parent="1" source="jSnhueOkiro6R8cV-VZZ-95" target="jSnhueOkiro6R8cV-VZZ-122">
          <mxGeometry relative="1" as="geometry" />
        </mxCell>
        <mxCell id="jSnhueOkiro6R8cV-VZZ-95" value="&lt;b&gt;UDP&lt;/b&gt;" style="rounded=0;whiteSpace=wrap;html=1;" vertex="1" parent="1">
          <mxGeometry x="10" y="970" width="80" height="50" as="geometry" />
        </mxCell>
        <mxCell id="jSnhueOkiro6R8cV-VZZ-96" value="Spolehlivý" style="rounded=0;whiteSpace=wrap;html=1;" vertex="1" parent="1">
          <mxGeometry x="-220" y="440" width="110" height="45" as="geometry" />
        </mxCell>
        <mxCell id="jSnhueOkiro6R8cV-VZZ-108" value="" style="edgeStyle=orthogonalEdgeStyle;rounded=0;orthogonalLoop=1;jettySize=auto;html=1;" edge="1" parent="1" source="jSnhueOkiro6R8cV-VZZ-97" target="jSnhueOkiro6R8cV-VZZ-107">
          <mxGeometry relative="1" as="geometry" />
        </mxCell>
        <mxCell id="jSnhueOkiro6R8cV-VZZ-97" value="Navazuje spojení" style="rounded=0;whiteSpace=wrap;html=1;" vertex="1" parent="1">
          <mxGeometry x="-220" y="500" width="110" height="50" as="geometry" />
        </mxCell>
        <mxCell id="jSnhueOkiro6R8cV-VZZ-98" value="Zapisuje pořadí dat" style="rounded=0;whiteSpace=wrap;html=1;" vertex="1" parent="1">
          <mxGeometry x="-220" y="570" width="110" height="50" as="geometry" />
        </mxCell>
        <mxCell id="jSnhueOkiro6R8cV-VZZ-99" value="Pomalejší než UDP" style="rounded=0;whiteSpace=wrap;html=1;" vertex="1" parent="1">
          <mxGeometry x="-220" y="640" width="110" height="50" as="geometry" />
        </mxCell>
        <mxCell id="jSnhueOkiro6R8cV-VZZ-100" value="Použítí: Web, e-mail, FTP,..." style="rounded=0;whiteSpace=wrap;html=1;" vertex="1" parent="1">
          <mxGeometry x="-220" y="780" width="110" height="50" as="geometry" />
        </mxCell>
        <mxCell id="jSnhueOkiro6R8cV-VZZ-110" value="" style="edgeStyle=orthogonalEdgeStyle;rounded=0;orthogonalLoop=1;jettySize=auto;html=1;" edge="1" parent="1" source="jSnhueOkiro6R8cV-VZZ-107" target="jSnhueOkiro6R8cV-VZZ-109">
          <mxGeometry relative="1" as="geometry" />
        </mxCell>
        <mxCell id="jSnhueOkiro6R8cV-VZZ-107" value="3-way handshake" style="rounded=0;whiteSpace=wrap;html=1;" vertex="1" parent="1">
          <mxGeometry x="-414" y="495" width="120" height="60" as="geometry" />
        </mxCell>
        <mxCell id="jSnhueOkiro6R8cV-VZZ-112" value="" style="edgeStyle=orthogonalEdgeStyle;rounded=0;orthogonalLoop=1;jettySize=auto;html=1;" edge="1" parent="1" source="jSnhueOkiro6R8cV-VZZ-109" target="jSnhueOkiro6R8cV-VZZ-111">
          <mxGeometry relative="1" as="geometry" />
        </mxCell>
        <mxCell id="jSnhueOkiro6R8cV-VZZ-109" value="Klient odešle SYN segment" style="ellipse;whiteSpace=wrap;html=1;aspect=fixed;fillColor=#ffff88;strokeColor=#36393d;" vertex="1" parent="1">
          <mxGeometry x="-399" y="340" width="90" height="90" as="geometry" />
        </mxCell>
        <mxCell id="jSnhueOkiro6R8cV-VZZ-114" value="" style="edgeStyle=orthogonalEdgeStyle;rounded=0;orthogonalLoop=1;jettySize=auto;html=1;" edge="1" parent="1" source="jSnhueOkiro6R8cV-VZZ-111" target="jSnhueOkiro6R8cV-VZZ-113">
          <mxGeometry relative="1" as="geometry" />
        </mxCell>
        <mxCell id="jSnhueOkiro6R8cV-VZZ-111" value="Server odpovi SYN - ACK segmentem" style="ellipse;whiteSpace=wrap;html=1;aspect=fixed;fillColor=#ffff88;strokeColor=#36393d;" vertex="1" parent="1">
          <mxGeometry x="-560" y="340" width="90" height="90" as="geometry" />
        </mxCell>
        <mxCell id="jSnhueOkiro6R8cV-VZZ-113" value="Klient odpoví ACK segmentem" style="ellipse;whiteSpace=wrap;html=1;aspect=fixed;fillColor=#ffff88;strokeColor=#36393d;" vertex="1" parent="1">
          <mxGeometry x="-720" y="340" width="90" height="90" as="geometry" />
        </mxCell>
        <mxCell id="jSnhueOkiro6R8cV-VZZ-116" value="Nepsolehlivý" style="rounded=0;whiteSpace=wrap;html=1;" vertex="1" parent="1">
          <mxGeometry x="-220" y="890" width="110" height="50" as="geometry" />
        </mxCell>
        <mxCell id="jSnhueOkiro6R8cV-VZZ-117" value="Nezapisuje pořadí dat" style="rounded=0;whiteSpace=wrap;html=1;" vertex="1" parent="1">
          <mxGeometry x="-220" y="970" width="110" height="50" as="geometry" />
        </mxCell>
        <mxCell id="jSnhueOkiro6R8cV-VZZ-119" value="Rychlejší než TCP" style="rounded=0;whiteSpace=wrap;html=1;" vertex="1" parent="1">
          <mxGeometry x="-220" y="1050" width="110" height="50" as="geometry" />
        </mxCell>
        <mxCell id="jSnhueOkiro6R8cV-VZZ-120" value="Vyžaduje potvrzení" style="rounded=0;whiteSpace=wrap;html=1;" vertex="1" parent="1">
          <mxGeometry x="-220" y="710" width="110" height="50" as="geometry" />
        </mxCell>
        <mxCell id="jSnhueOkiro6R8cV-VZZ-121" value="Občasná ztráta dat" style="rounded=0;whiteSpace=wrap;html=1;" vertex="1" parent="1">
          <mxGeometry x="-220" y="1130" width="110" height="50" as="geometry" />
        </mxCell>
        <mxCell id="jSnhueOkiro6R8cV-VZZ-122" value="Použití:&lt;div&gt;Hry, VoIP, Streamy&lt;/div&gt;" style="rounded=0;whiteSpace=wrap;html=1;" vertex="1" parent="1">
          <mxGeometry x="-220" y="1210" width="110" height="50" as="geometry" />
        </mxCell>
        <mxCell id="jSnhueOkiro6R8cV-VZZ-134" value="" style="edgeStyle=orthogonalEdgeStyle;rounded=0;orthogonalLoop=1;jettySize=auto;html=1;" edge="1" parent="1" source="jSnhueOkiro6R8cV-VZZ-128" target="jSnhueOkiro6R8cV-VZZ-131">
          <mxGeometry relative="1" as="geometry" />
        </mxCell>
        <mxCell id="jSnhueOkiro6R8cV-VZZ-128" value="Zapouzdření" style="rounded=0;whiteSpace=wrap;html=1;" vertex="1" parent="1">
          <mxGeometry x="610" y="805" width="120" height="60" as="geometry" />
        </mxCell>
        <mxCell id="jSnhueOkiro6R8cV-VZZ-135" value="" style="edgeStyle=orthogonalEdgeStyle;rounded=0;orthogonalLoop=1;jettySize=auto;html=1;" edge="1" parent="1" source="jSnhueOkiro6R8cV-VZZ-131" target="jSnhueOkiro6R8cV-VZZ-132">
          <mxGeometry relative="1" as="geometry" />
        </mxCell>
        <mxCell id="jSnhueOkiro6R8cV-VZZ-131" value="Transportní vrstva přebere data z aplikační vrstvy (HTTP, DNS, ...)" style="ellipse;whiteSpace=wrap;html=1;aspect=fixed;fillColor=#ffff88;strokeColor=#36393d;" vertex="1" parent="1">
          <mxGeometry x="793" y="773.5" width="123" height="123" as="geometry" />
        </mxCell>
        <mxCell id="jSnhueOkiro6R8cV-VZZ-136" value="" style="edgeStyle=orthogonalEdgeStyle;rounded=0;orthogonalLoop=1;jettySize=auto;html=1;" edge="1" parent="1" source="jSnhueOkiro6R8cV-VZZ-132" target="jSnhueOkiro6R8cV-VZZ-133">
          <mxGeometry relative="1" as="geometry" />
        </mxCell>
        <mxCell id="jSnhueOkiro6R8cV-VZZ-132" value="Data rozdělí na segmenty (datagramy u UDP)" style="ellipse;whiteSpace=wrap;html=1;aspect=fixed;fillColor=#ffff88;strokeColor=#36393d;" vertex="1" parent="1">
          <mxGeometry x="1003" y="773.5" width="121.5" height="121.5" as="geometry" />
        </mxCell>
        <mxCell id="jSnhueOkiro6R8cV-VZZ-133" value="K segmentu přidá header (Porty, sekvenční čísla, potvrzení,...)" style="ellipse;whiteSpace=wrap;html=1;aspect=fixed;fillColor=#ffff88;strokeColor=#36393d;" vertex="1" parent="1">
          <mxGeometry x="1214" y="770" width="130" height="130" as="geometry" />
        </mxCell>
        <mxCell id="jSnhueOkiro6R8cV-VZZ-137" value="&lt;b&gt;PDU&lt;/b&gt;&lt;div&gt;Segment&lt;/div&gt;&lt;div&gt;Čísla portů&lt;/div&gt;&lt;div&gt;data + TCP/UDP header&lt;/div&gt;" style="rounded=0;whiteSpace=wrap;html=1;fillColor=#cdeb8b;strokeColor=#36393d;" vertex="1" parent="1">
          <mxGeometry x="653" y="670" width="178" height="70" as="geometry" />
        </mxCell>
        <mxCell id="jSnhueOkiro6R8cV-VZZ-155" value="" style="edgeStyle=orthogonalEdgeStyle;rounded=0;orthogonalLoop=1;jettySize=auto;html=1;" edge="1" parent="1" source="jSnhueOkiro6R8cV-VZZ-142" target="jSnhueOkiro6R8cV-VZZ-154">
          <mxGeometry relative="1" as="geometry" />
        </mxCell>
        <mxCell id="jSnhueOkiro6R8cV-VZZ-159" style="edgeStyle=orthogonalEdgeStyle;rounded=0;orthogonalLoop=1;jettySize=auto;html=1;entryX=0;entryY=0.5;entryDx=0;entryDy=0;" edge="1" parent="1" source="jSnhueOkiro6R8cV-VZZ-142" target="jSnhueOkiro6R8cV-VZZ-156">
          <mxGeometry relative="1" as="geometry">
            <Array as="points">
              <mxPoint x="960" y="1059" />
              <mxPoint x="960" y="990" />
            </Array>
          </mxGeometry>
        </mxCell>
        <mxCell id="jSnhueOkiro6R8cV-VZZ-160" style="edgeStyle=orthogonalEdgeStyle;rounded=0;orthogonalLoop=1;jettySize=auto;html=1;" edge="1" parent="1" source="jSnhueOkiro6R8cV-VZZ-142" target="jSnhueOkiro6R8cV-VZZ-157">
          <mxGeometry relative="1" as="geometry" />
        </mxCell>
        <mxCell id="jSnhueOkiro6R8cV-VZZ-161" style="edgeStyle=orthogonalEdgeStyle;rounded=0;orthogonalLoop=1;jettySize=auto;html=1;" edge="1" parent="1" source="jSnhueOkiro6R8cV-VZZ-142" target="jSnhueOkiro6R8cV-VZZ-158">
          <mxGeometry relative="1" as="geometry">
            <Array as="points">
              <mxPoint x="960" y="1059" />
              <mxPoint x="960" y="1140" />
            </Array>
          </mxGeometry>
        </mxCell>
        <mxCell id="jSnhueOkiro6R8cV-VZZ-142" value="&lt;b&gt;Funkce&lt;/b&gt;:&lt;div&gt;Adresování a směrování packetů mezi sítěmi&lt;/div&gt;&lt;div&gt;Výběr nejlepší cesty k cíli&lt;/div&gt;&lt;div&gt;Fragmentace packetů&lt;/div&gt;" style="rounded=0;whiteSpace=wrap;html=1;fillColor=#cdeb8b;strokeColor=#36393d;" vertex="1" parent="1">
          <mxGeometry x="626" y="1019" width="290" height="80" as="geometry" />
        </mxCell>
        <mxCell id="jSnhueOkiro6R8cV-VZZ-150" style="edgeStyle=orthogonalEdgeStyle;rounded=0;orthogonalLoop=1;jettySize=auto;html=1;entryX=1;entryY=0.5;entryDx=0;entryDy=0;" edge="1" parent="1" source="jSnhueOkiro6R8cV-VZZ-144" target="jSnhueOkiro6R8cV-VZZ-146">
          <mxGeometry relative="1" as="geometry" />
        </mxCell>
        <mxCell id="jSnhueOkiro6R8cV-VZZ-151" style="edgeStyle=orthogonalEdgeStyle;rounded=0;orthogonalLoop=1;jettySize=auto;html=1;entryX=1;entryY=0.5;entryDx=0;entryDy=0;" edge="1" parent="1" source="jSnhueOkiro6R8cV-VZZ-144" target="jSnhueOkiro6R8cV-VZZ-147">
          <mxGeometry relative="1" as="geometry" />
        </mxCell>
        <mxCell id="jSnhueOkiro6R8cV-VZZ-152" style="edgeStyle=orthogonalEdgeStyle;rounded=0;orthogonalLoop=1;jettySize=auto;html=1;entryX=1;entryY=0.5;entryDx=0;entryDy=0;" edge="1" parent="1" source="jSnhueOkiro6R8cV-VZZ-144" target="jSnhueOkiro6R8cV-VZZ-148">
          <mxGeometry relative="1" as="geometry" />
        </mxCell>
        <mxCell id="jSnhueOkiro6R8cV-VZZ-153" style="edgeStyle=orthogonalEdgeStyle;rounded=0;orthogonalLoop=1;jettySize=auto;html=1;entryX=1;entryY=0.5;entryDx=0;entryDy=0;" edge="1" parent="1" source="jSnhueOkiro6R8cV-VZZ-144" target="jSnhueOkiro6R8cV-VZZ-149">
          <mxGeometry relative="1" as="geometry" />
        </mxCell>
        <mxCell id="jSnhueOkiro6R8cV-VZZ-144" value="&lt;b&gt;Protokoly&lt;/b&gt;" style="rounded=0;whiteSpace=wrap;html=1;fillColor=#f9f7ed;strokeColor=#36393d;" vertex="1" parent="1">
          <mxGeometry x="210" y="1360" width="120" height="60" as="geometry" />
        </mxCell>
        <mxCell id="jSnhueOkiro6R8cV-VZZ-146" value="IP (v4, v6)&lt;div&gt;Základní protokol pro adresování a doručení packetů&lt;/div&gt;" style="rounded=0;whiteSpace=wrap;html=1;" vertex="1" parent="1">
          <mxGeometry x="-160" y="1310" width="300" height="40" as="geometry" />
        </mxCell>
        <mxCell id="jSnhueOkiro6R8cV-VZZ-147" value="ICMP&lt;div&gt;Pro zasílání chybových zpráv a diagnostiku&lt;/div&gt;" style="rounded=0;whiteSpace=wrap;html=1;" vertex="1" parent="1">
          <mxGeometry x="-110" y="1370" width="250" height="40" as="geometry" />
        </mxCell>
        <mxCell id="jSnhueOkiro6R8cV-VZZ-148" value="ARP&lt;div&gt;Převod IP adresy na MAC adresu v rámci local network&lt;/div&gt;" style="rounded=0;whiteSpace=wrap;html=1;" vertex="1" parent="1">
          <mxGeometry x="-180" y="1430" width="320" height="40" as="geometry" />
        </mxCell>
        <mxCell id="jSnhueOkiro6R8cV-VZZ-149" value="RIP, OSPF, EIGRP&lt;div&gt;Směrovací protkoly používáne k výměně informací mezi routery&lt;/div&gt;" style="rounded=0;whiteSpace=wrap;html=1;" vertex="1" parent="1">
          <mxGeometry x="-240" y="1490" width="380" height="40" as="geometry" />
        </mxCell>
        <mxCell id="jSnhueOkiro6R8cV-VZZ-154" value="PDU&lt;div&gt;Packet&lt;/div&gt;&lt;div&gt;IP adresy&lt;/div&gt;" style="rounded=0;whiteSpace=wrap;html=1;fillColor=#cdeb8b;strokeColor=#36393d;" vertex="1" parent="1">
          <mxGeometry x="711" y="1130" width="120" height="60" as="geometry" />
        </mxCell>
        <mxCell id="jSnhueOkiro6R8cV-VZZ-156" value="Adresování&lt;div&gt;Každé zařízení dostane IP adresu&lt;/div&gt;" style="rounded=0;whiteSpace=wrap;html=1;" vertex="1" parent="1">
          <mxGeometry x="1014" y="970" width="200" height="41" as="geometry" />
        </mxCell>
        <mxCell id="jSnhueOkiro6R8cV-VZZ-157" value="Fragmentace&lt;div&gt;Rozděluje packet na menší části&lt;/div&gt;" style="rounded=0;whiteSpace=wrap;html=1;" vertex="1" parent="1">
          <mxGeometry x="1014" y="1039" width="200" height="41" as="geometry" />
        </mxCell>
        <mxCell id="jSnhueOkiro6R8cV-VZZ-158" value="TTL&lt;div&gt;Zabraňuje nekonečné smyčče v síti (po routeru se sníží TTL o 1)&lt;/div&gt;" style="rounded=0;whiteSpace=wrap;html=1;" vertex="1" parent="1">
          <mxGeometry x="1014" y="1110" width="206" height="60" as="geometry" />
        </mxCell>
        <mxCell id="jSnhueOkiro6R8cV-VZZ-163" value="Zapouzdření&lt;div&gt;Přidá IP hlavičku&lt;/div&gt;" style="rounded=0;whiteSpace=wrap;html=1;" vertex="1" parent="1">
          <mxGeometry x="626" y="1275" width="120" height="60" as="geometry" />
        </mxCell>
        <mxCell id="jSnhueOkiro6R8cV-VZZ-178" style="edgeStyle=orthogonalEdgeStyle;rounded=0;orthogonalLoop=1;jettySize=auto;html=1;entryX=0;entryY=0.5;entryDx=0;entryDy=0;" edge="1" parent="1" source="jSnhueOkiro6R8cV-VZZ-165" target="jSnhueOkiro6R8cV-VZZ-173">
          <mxGeometry relative="1" as="geometry" />
        </mxCell>
        <mxCell id="jSnhueOkiro6R8cV-VZZ-179" style="edgeStyle=orthogonalEdgeStyle;rounded=0;orthogonalLoop=1;jettySize=auto;html=1;entryX=0;entryY=0.5;entryDx=0;entryDy=0;" edge="1" parent="1" source="jSnhueOkiro6R8cV-VZZ-165" target="jSnhueOkiro6R8cV-VZZ-174">
          <mxGeometry relative="1" as="geometry" />
        </mxCell>
        <mxCell id="jSnhueOkiro6R8cV-VZZ-180" style="edgeStyle=orthogonalEdgeStyle;rounded=0;orthogonalLoop=1;jettySize=auto;html=1;entryX=0;entryY=0.5;entryDx=0;entryDy=0;" edge="1" parent="1" source="jSnhueOkiro6R8cV-VZZ-165" target="jSnhueOkiro6R8cV-VZZ-176">
          <mxGeometry relative="1" as="geometry" />
        </mxCell>
        <mxCell id="jSnhueOkiro6R8cV-VZZ-181" style="edgeStyle=orthogonalEdgeStyle;rounded=0;orthogonalLoop=1;jettySize=auto;html=1;entryX=0;entryY=0.5;entryDx=0;entryDy=0;" edge="1" parent="1" source="jSnhueOkiro6R8cV-VZZ-165" target="jSnhueOkiro6R8cV-VZZ-177">
          <mxGeometry relative="1" as="geometry" />
        </mxCell>
        <mxCell id="jSnhueOkiro6R8cV-VZZ-201" value="" style="edgeStyle=orthogonalEdgeStyle;rounded=0;orthogonalLoop=1;jettySize=auto;html=1;" edge="1" parent="1" source="jSnhueOkiro6R8cV-VZZ-165" target="jSnhueOkiro6R8cV-VZZ-200">
          <mxGeometry relative="1" as="geometry" />
        </mxCell>
        <mxCell id="jSnhueOkiro6R8cV-VZZ-165" value="&lt;b&gt;IPv4&lt;/b&gt;" style="rounded=0;whiteSpace=wrap;html=1;fillColor=#f8cecc;strokeColor=#b85450;" vertex="1" parent="1">
          <mxGeometry x="1120" y="1290" width="120" height="60" as="geometry" />
        </mxCell>
        <mxCell id="jSnhueOkiro6R8cV-VZZ-186" value="" style="edgeStyle=orthogonalEdgeStyle;rounded=0;orthogonalLoop=1;jettySize=auto;html=1;" edge="1" parent="1" source="jSnhueOkiro6R8cV-VZZ-166" target="jSnhueOkiro6R8cV-VZZ-182">
          <mxGeometry relative="1" as="geometry" />
        </mxCell>
        <mxCell id="jSnhueOkiro6R8cV-VZZ-187" style="edgeStyle=orthogonalEdgeStyle;rounded=0;orthogonalLoop=1;jettySize=auto;html=1;entryX=0;entryY=0.5;entryDx=0;entryDy=0;" edge="1" parent="1" source="jSnhueOkiro6R8cV-VZZ-166" target="jSnhueOkiro6R8cV-VZZ-183">
          <mxGeometry relative="1" as="geometry" />
        </mxCell>
        <mxCell id="jSnhueOkiro6R8cV-VZZ-188" style="edgeStyle=orthogonalEdgeStyle;rounded=0;orthogonalLoop=1;jettySize=auto;html=1;entryX=0;entryY=0.5;entryDx=0;entryDy=0;" edge="1" parent="1" source="jSnhueOkiro6R8cV-VZZ-166" target="jSnhueOkiro6R8cV-VZZ-184">
          <mxGeometry relative="1" as="geometry" />
        </mxCell>
        <mxCell id="jSnhueOkiro6R8cV-VZZ-189" style="edgeStyle=orthogonalEdgeStyle;rounded=0;orthogonalLoop=1;jettySize=auto;html=1;entryX=0;entryY=0.5;entryDx=0;entryDy=0;" edge="1" parent="1" source="jSnhueOkiro6R8cV-VZZ-166" target="jSnhueOkiro6R8cV-VZZ-185">
          <mxGeometry relative="1" as="geometry" />
        </mxCell>
        <mxCell id="jSnhueOkiro6R8cV-VZZ-205" value="" style="edgeStyle=orthogonalEdgeStyle;rounded=0;orthogonalLoop=1;jettySize=auto;html=1;" edge="1" parent="1" source="jSnhueOkiro6R8cV-VZZ-166" target="jSnhueOkiro6R8cV-VZZ-204">
          <mxGeometry relative="1" as="geometry" />
        </mxCell>
        <mxCell id="jSnhueOkiro6R8cV-VZZ-225" style="edgeStyle=orthogonalEdgeStyle;rounded=0;orthogonalLoop=1;jettySize=auto;html=1;entryX=0;entryY=0.5;entryDx=0;entryDy=0;" edge="1" parent="1" source="jSnhueOkiro6R8cV-VZZ-166" target="jSnhueOkiro6R8cV-VZZ-219">
          <mxGeometry relative="1" as="geometry">
            <Array as="points">
              <mxPoint x="1180" y="1629" />
            </Array>
          </mxGeometry>
        </mxCell>
        <mxCell id="jSnhueOkiro6R8cV-VZZ-231" style="edgeStyle=orthogonalEdgeStyle;rounded=0;orthogonalLoop=1;jettySize=auto;html=1;entryX=0;entryY=0.5;entryDx=0;entryDy=0;" edge="1" parent="1" source="jSnhueOkiro6R8cV-VZZ-166" target="jSnhueOkiro6R8cV-VZZ-230">
          <mxGeometry relative="1" as="geometry">
            <Array as="points">
              <mxPoint x="1180" y="1533" />
            </Array>
          </mxGeometry>
        </mxCell>
        <mxCell id="jSnhueOkiro6R8cV-VZZ-166" value="&lt;b&gt;IPv6&lt;/b&gt;" style="rounded=0;whiteSpace=wrap;html=1;fillColor=#f8cecc;strokeColor=#b85450;" vertex="1" parent="1">
          <mxGeometry x="1120" y="1650" width="120" height="60" as="geometry" />
        </mxCell>
        <mxCell id="jSnhueOkiro6R8cV-VZZ-172" value="" style="edgeStyle=orthogonalEdgeStyle;rounded=0;orthogonalLoop=1;jettySize=auto;html=1;entryX=0;entryY=0.5;entryDx=0;entryDy=0;" edge="1" parent="1" source="jSnhueOkiro6R8cV-VZZ-6" target="jSnhueOkiro6R8cV-VZZ-171">
          <mxGeometry relative="1" as="geometry">
            <mxPoint x="524" y="1240" as="sourcePoint" />
            <mxPoint x="960" y="1410" as="targetPoint" />
            <Array as="points">
              <mxPoint x="790" y="1240" />
              <mxPoint x="790" y="1350" />
            </Array>
          </mxGeometry>
        </mxCell>
        <mxCell id="jSnhueOkiro6R8cV-VZZ-195" style="edgeStyle=orthogonalEdgeStyle;rounded=0;orthogonalLoop=1;jettySize=auto;html=1;entryX=0.5;entryY=0;entryDx=0;entryDy=0;" edge="1" parent="1" source="jSnhueOkiro6R8cV-VZZ-171" target="jSnhueOkiro6R8cV-VZZ-190">
          <mxGeometry relative="1" as="geometry" />
        </mxCell>
        <mxCell id="jSnhueOkiro6R8cV-VZZ-196" style="edgeStyle=orthogonalEdgeStyle;rounded=0;orthogonalLoop=1;jettySize=auto;html=1;entryX=0.5;entryY=0;entryDx=0;entryDy=0;" edge="1" parent="1" source="jSnhueOkiro6R8cV-VZZ-171" target="jSnhueOkiro6R8cV-VZZ-191">
          <mxGeometry relative="1" as="geometry" />
        </mxCell>
        <mxCell id="jSnhueOkiro6R8cV-VZZ-198" value="" style="edgeStyle=orthogonalEdgeStyle;rounded=0;orthogonalLoop=1;jettySize=auto;html=1;" edge="1" parent="1" source="jSnhueOkiro6R8cV-VZZ-171" target="jSnhueOkiro6R8cV-VZZ-165">
          <mxGeometry relative="1" as="geometry" />
        </mxCell>
        <mxCell id="jSnhueOkiro6R8cV-VZZ-199" style="edgeStyle=orthogonalEdgeStyle;rounded=0;orthogonalLoop=1;jettySize=auto;html=1;entryX=0;entryY=0.5;entryDx=0;entryDy=0;" edge="1" parent="1" source="jSnhueOkiro6R8cV-VZZ-171" target="jSnhueOkiro6R8cV-VZZ-166">
          <mxGeometry relative="1" as="geometry" />
        </mxCell>
        <mxCell id="jSnhueOkiro6R8cV-VZZ-171" value="&lt;b&gt;IP Adresy&lt;/b&gt;" style="rounded=0;whiteSpace=wrap;html=1;fillColor=#f8cecc;strokeColor=#b85450;" vertex="1" parent="1">
          <mxGeometry x="860" y="1320" width="120" height="60" as="geometry" />
        </mxCell>
        <mxCell id="jSnhueOkiro6R8cV-VZZ-173" value="32 bitů" style="rounded=0;whiteSpace=wrap;html=1;" vertex="1" parent="1">
          <mxGeometry x="1314" y="1305" width="60" height="30" as="geometry" />
        </mxCell>
        <mxCell id="jSnhueOkiro6R8cV-VZZ-174" value="4 Oktety (max 255)" style="rounded=0;whiteSpace=wrap;html=1;" vertex="1" parent="1">
          <mxGeometry x="1314" y="1350" width="110" height="30" as="geometry" />
        </mxCell>
        <mxCell id="jSnhueOkiro6R8cV-VZZ-176" value="Unicast, broadcast, multicast" style="rounded=0;whiteSpace=wrap;html=1;" vertex="1" parent="1">
          <mxGeometry x="1314" y="1400" width="190" height="30" as="geometry" />
        </mxCell>
        <mxCell id="jSnhueOkiro6R8cV-VZZ-177" value="DHCP nebo manuální konfigurace" style="rounded=0;whiteSpace=wrap;html=1;" vertex="1" parent="1">
          <mxGeometry x="1314" y="1450" width="220" height="30" as="geometry" />
        </mxCell>
        <mxCell id="jSnhueOkiro6R8cV-VZZ-182" value="128 bitů" style="rounded=0;whiteSpace=wrap;html=1;" vertex="1" parent="1">
          <mxGeometry x="1314" y="1665" width="90" height="30" as="geometry" />
        </mxCell>
        <mxCell id="jSnhueOkiro6R8cV-VZZ-183" value="8 Oktetů (hexadecimálně)" style="rounded=0;whiteSpace=wrap;html=1;" vertex="1" parent="1">
          <mxGeometry x="1314" y="1720" width="150" height="30" as="geometry" />
        </mxCell>
        <mxCell id="jSnhueOkiro6R8cV-VZZ-184" value="Unicast, anycast, multicast" style="rounded=0;whiteSpace=wrap;html=1;" vertex="1" parent="1">
          <mxGeometry x="1314" y="1778.5" width="170" height="30" as="geometry" />
        </mxCell>
        <mxCell id="jSnhueOkiro6R8cV-VZZ-185" value="Konfigurace přes SLAAC nebo DHCPv6" style="rounded=0;whiteSpace=wrap;html=1;" vertex="1" parent="1">
          <mxGeometry x="1314" y="1830" width="240" height="30" as="geometry" />
        </mxCell>
        <mxCell id="jSnhueOkiro6R8cV-VZZ-197" value="" style="edgeStyle=orthogonalEdgeStyle;rounded=0;orthogonalLoop=1;jettySize=auto;html=1;" edge="1" parent="1" source="jSnhueOkiro6R8cV-VZZ-190" target="jSnhueOkiro6R8cV-VZZ-194">
          <mxGeometry relative="1" as="geometry" />
        </mxCell>
        <mxCell id="jSnhueOkiro6R8cV-VZZ-190" value="Privátní" style="rounded=0;whiteSpace=wrap;html=1;" vertex="1" parent="1">
          <mxGeometry x="835" y="1420" width="70" height="40" as="geometry" />
        </mxCell>
        <mxCell id="jSnhueOkiro6R8cV-VZZ-191" value="Veřejná" style="rounded=0;whiteSpace=wrap;html=1;" vertex="1" parent="1">
          <mxGeometry x="934.5" y="1420" width="80" height="40" as="geometry" />
        </mxCell>
        <mxCell id="jSnhueOkiro6R8cV-VZZ-192" value="10.0.0.0-10.255.255.255" style="rounded=0;whiteSpace=wrap;html=1;" vertex="1" parent="1">
          <mxGeometry x="792.5" y="1492.5" width="155" height="30" as="geometry" />
        </mxCell>
        <mxCell id="jSnhueOkiro6R8cV-VZZ-193" value="172.16.0.0-172.31.255.255" style="rounded=0;whiteSpace=wrap;html=1;" vertex="1" parent="1">
          <mxGeometry x="790" y="1540" width="160" height="30" as="geometry" />
        </mxCell>
        <mxCell id="jSnhueOkiro6R8cV-VZZ-194" value="192.168.0.0-.192.168.255.255" style="rounded=0;whiteSpace=wrap;html=1;" vertex="1" parent="1">
          <mxGeometry x="780" y="1590" width="180" height="35" as="geometry" />
        </mxCell>
        <mxCell id="jSnhueOkiro6R8cV-VZZ-203" value="" style="edgeStyle=orthogonalEdgeStyle;rounded=0;orthogonalLoop=1;jettySize=auto;html=1;" edge="1" parent="1" source="jSnhueOkiro6R8cV-VZZ-200" target="jSnhueOkiro6R8cV-VZZ-202">
          <mxGeometry relative="1" as="geometry" />
        </mxCell>
        <mxCell id="jSnhueOkiro6R8cV-VZZ-200" value="NAT" style="rounded=0;whiteSpace=wrap;html=1;" vertex="1" parent="1">
          <mxGeometry x="1120" y="1190" width="120" height="60" as="geometry" />
        </mxCell>
        <mxCell id="jSnhueOkiro6R8cV-VZZ-202" value="Překládá IP adresy mezi vnitřní a vnější sítí&lt;div&gt;Umožňuje privátním IP adresám přístup na internet pomocí jedné veřejné IP adresy&lt;/div&gt;" style="rounded=0;whiteSpace=wrap;html=1;" vertex="1" parent="1">
          <mxGeometry x="1280" y="1190" width="466" height="60" as="geometry" />
        </mxCell>
        <mxCell id="jSnhueOkiro6R8cV-VZZ-207" value="" style="edgeStyle=orthogonalEdgeStyle;rounded=0;orthogonalLoop=1;jettySize=auto;html=1;" edge="1" parent="1" source="jSnhueOkiro6R8cV-VZZ-204" target="jSnhueOkiro6R8cV-VZZ-206">
          <mxGeometry relative="1" as="geometry" />
        </mxCell>
        <mxCell id="jSnhueOkiro6R8cV-VZZ-209" value="" style="edgeStyle=orthogonalEdgeStyle;rounded=0;orthogonalLoop=1;jettySize=auto;html=1;" edge="1" parent="1" source="jSnhueOkiro6R8cV-VZZ-204" target="jSnhueOkiro6R8cV-VZZ-208">
          <mxGeometry relative="1" as="geometry" />
        </mxCell>
        <mxCell id="jSnhueOkiro6R8cV-VZZ-204" value="SLAAC" style="rounded=0;whiteSpace=wrap;html=1;" vertex="1" parent="1">
          <mxGeometry x="1057.25" y="1750" width="120" height="60" as="geometry" />
        </mxCell>
        <mxCell id="jSnhueOkiro6R8cV-VZZ-206" value="Mechanismus automatického přidělování IPv6 adres bez DHCP" style="rounded=0;whiteSpace=wrap;html=1;" vertex="1" parent="1">
          <mxGeometry x="1014.5" y="1851.5" width="205.5" height="48.5" as="geometry" />
        </mxCell>
        <mxCell id="jSnhueOkiro6R8cV-VZZ-215" style="edgeStyle=orthogonalEdgeStyle;rounded=0;orthogonalLoop=1;jettySize=auto;html=1;entryX=1;entryY=0.5;entryDx=0;entryDy=0;" edge="1" parent="1" source="jSnhueOkiro6R8cV-VZZ-208" target="jSnhueOkiro6R8cV-VZZ-211">
          <mxGeometry relative="1" as="geometry" />
        </mxCell>
        <mxCell id="jSnhueOkiro6R8cV-VZZ-216" style="edgeStyle=orthogonalEdgeStyle;rounded=0;orthogonalLoop=1;jettySize=auto;html=1;entryX=1;entryY=0.5;entryDx=0;entryDy=0;" edge="1" parent="1" source="jSnhueOkiro6R8cV-VZZ-208" target="jSnhueOkiro6R8cV-VZZ-212">
          <mxGeometry relative="1" as="geometry" />
        </mxCell>
        <mxCell id="jSnhueOkiro6R8cV-VZZ-217" style="edgeStyle=orthogonalEdgeStyle;rounded=0;orthogonalLoop=1;jettySize=auto;html=1;entryX=1;entryY=0.5;entryDx=0;entryDy=0;" edge="1" parent="1" source="jSnhueOkiro6R8cV-VZZ-208" target="jSnhueOkiro6R8cV-VZZ-213">
          <mxGeometry relative="1" as="geometry" />
        </mxCell>
        <mxCell id="jSnhueOkiro6R8cV-VZZ-218" style="edgeStyle=orthogonalEdgeStyle;rounded=0;orthogonalLoop=1;jettySize=auto;html=1;entryX=1;entryY=0.5;entryDx=0;entryDy=0;" edge="1" parent="1">
          <mxGeometry relative="1" as="geometry">
            <mxPoint x="936" y="1780" as="sourcePoint" />
            <mxPoint x="848.5" y="1710" as="targetPoint" />
            <Array as="points">
              <mxPoint x="891.5" y="1780" />
              <mxPoint x="891.5" y="1710" />
            </Array>
          </mxGeometry>
        </mxCell>
        <mxCell id="jSnhueOkiro6R8cV-VZZ-208" value="Typy zpráv" style="rounded=0;whiteSpace=wrap;html=1;" vertex="1" parent="1">
          <mxGeometry x="934.5" y="1762" width="73" height="36" as="geometry" />
        </mxCell>
        <mxCell id="jSnhueOkiro6R8cV-VZZ-210" value="&lt;b&gt;Router Solicitation&lt;/b&gt;&lt;div&gt;Klient žádá o informace o síti&lt;/div&gt;" style="rounded=0;whiteSpace=wrap;html=1;" vertex="1" parent="1">
          <mxGeometry x="670" y="1710" width="177" height="40" as="geometry" />
        </mxCell>
        <mxCell id="jSnhueOkiro6R8cV-VZZ-211" value="&lt;b&gt;Router Advertisement&lt;/b&gt;&lt;div&gt;Poskytuje informace pro konfiguraci&lt;/div&gt;" style="rounded=0;whiteSpace=wrap;html=1;" vertex="1" parent="1">
          <mxGeometry x="635.5" y="1760" width="213" height="40" as="geometry" />
        </mxCell>
        <mxCell id="jSnhueOkiro6R8cV-VZZ-212" value="&lt;b&gt;Neighbor Solicitation&lt;/b&gt;&lt;div&gt;Dotaz na MAC adresu k IPv6 adrese&lt;/div&gt;" style="rounded=0;whiteSpace=wrap;html=1;" vertex="1" parent="1">
          <mxGeometry x="618.5" y="1810" width="230" height="40" as="geometry" />
        </mxCell>
        <mxCell id="jSnhueOkiro6R8cV-VZZ-213" value="&lt;b&gt;Neighbor Advertisement&lt;/b&gt;&lt;div&gt;Informace o MAC adrese&lt;/div&gt;" style="rounded=0;whiteSpace=wrap;html=1;" vertex="1" parent="1">
          <mxGeometry x="673.5" y="1860" width="175" height="40" as="geometry" />
        </mxCell>
        <mxCell id="jSnhueOkiro6R8cV-VZZ-214" style="edgeStyle=orthogonalEdgeStyle;rounded=0;orthogonalLoop=1;jettySize=auto;html=1;exitX=0.5;exitY=1;exitDx=0;exitDy=0;" edge="1" parent="1" source="jSnhueOkiro6R8cV-VZZ-210" target="jSnhueOkiro6R8cV-VZZ-210">
          <mxGeometry relative="1" as="geometry" />
        </mxCell>
        <mxCell id="jSnhueOkiro6R8cV-VZZ-223" value="" style="edgeStyle=orthogonalEdgeStyle;rounded=0;orthogonalLoop=1;jettySize=auto;html=1;" edge="1" parent="1" source="jSnhueOkiro6R8cV-VZZ-219" target="jSnhueOkiro6R8cV-VZZ-222">
          <mxGeometry relative="1" as="geometry" />
        </mxCell>
        <mxCell id="jSnhueOkiro6R8cV-VZZ-224" style="edgeStyle=orthogonalEdgeStyle;rounded=0;orthogonalLoop=1;jettySize=auto;html=1;entryX=0;entryY=0.5;entryDx=0;entryDy=0;" edge="1" parent="1" source="jSnhueOkiro6R8cV-VZZ-219" target="jSnhueOkiro6R8cV-VZZ-221">
          <mxGeometry relative="1" as="geometry" />
        </mxCell>
        <mxCell id="jSnhueOkiro6R8cV-VZZ-219" value="Struktura IPv6" style="rounded=0;whiteSpace=wrap;html=1;" vertex="1" parent="1">
          <mxGeometry x="1504" y="1598.75" width="120" height="60" as="geometry" />
        </mxCell>
        <mxCell id="jSnhueOkiro6R8cV-VZZ-228" style="edgeStyle=orthogonalEdgeStyle;rounded=0;orthogonalLoop=1;jettySize=auto;html=1;entryX=0;entryY=0.5;entryDx=0;entryDy=0;" edge="1" parent="1" source="jSnhueOkiro6R8cV-VZZ-221" target="jSnhueOkiro6R8cV-VZZ-226">
          <mxGeometry relative="1" as="geometry" />
        </mxCell>
        <mxCell id="jSnhueOkiro6R8cV-VZZ-229" style="edgeStyle=orthogonalEdgeStyle;rounded=0;orthogonalLoop=1;jettySize=auto;html=1;entryX=0;entryY=0.5;entryDx=0;entryDy=0;" edge="1" parent="1" source="jSnhueOkiro6R8cV-VZZ-221" target="jSnhueOkiro6R8cV-VZZ-227">
          <mxGeometry relative="1" as="geometry" />
        </mxCell>
        <mxCell id="jSnhueOkiro6R8cV-VZZ-221" value="Network prefix&lt;div&gt;prvních 64 bitů&lt;/div&gt;&lt;div&gt;Určuje síť ve které je zařízení&lt;/div&gt;" style="rounded=0;whiteSpace=wrap;html=1;" vertex="1" parent="1">
          <mxGeometry x="1704" y="1562.5" width="180" height="55" as="geometry" />
        </mxCell>
        <mxCell id="jSnhueOkiro6R8cV-VZZ-222" value="Interface ID&lt;div&gt;posledních 64 bitů&lt;/div&gt;&lt;div&gt;Unikátní identifikátor zařízení&lt;/div&gt;" style="rounded=0;whiteSpace=wrap;html=1;" vertex="1" parent="1">
          <mxGeometry x="1704" y="1640" width="190" height="55" as="geometry" />
        </mxCell>
        <mxCell id="jSnhueOkiro6R8cV-VZZ-226" value="Global" style="rounded=0;whiteSpace=wrap;html=1;" vertex="1" parent="1">
          <mxGeometry x="1934" y="1555" width="50" height="30" as="geometry" />
        </mxCell>
        <mxCell id="jSnhueOkiro6R8cV-VZZ-227" value="Subnet ID" style="rounded=0;whiteSpace=wrap;html=1;" vertex="1" parent="1">
          <mxGeometry x="1934" y="1600" width="70" height="30" as="geometry" />
        </mxCell>
        <mxCell id="jSnhueOkiro6R8cV-VZZ-236" value="" style="edgeStyle=orthogonalEdgeStyle;rounded=0;orthogonalLoop=1;jettySize=auto;html=1;" edge="1" parent="1" source="jSnhueOkiro6R8cV-VZZ-230" target="jSnhueOkiro6R8cV-VZZ-233">
          <mxGeometry relative="1" as="geometry" />
        </mxCell>
        <mxCell id="jSnhueOkiro6R8cV-VZZ-237" style="edgeStyle=orthogonalEdgeStyle;rounded=0;orthogonalLoop=1;jettySize=auto;html=1;entryX=0;entryY=0.5;entryDx=0;entryDy=0;" edge="1" parent="1" source="jSnhueOkiro6R8cV-VZZ-230" target="jSnhueOkiro6R8cV-VZZ-234">
          <mxGeometry relative="1" as="geometry" />
        </mxCell>
        <mxCell id="jSnhueOkiro6R8cV-VZZ-230" value="Typy IPv6 adres" style="rounded=0;whiteSpace=wrap;html=1;" vertex="1" parent="1">
          <mxGeometry x="1504" y="1502.5" width="120" height="60" as="geometry" />
        </mxCell>
        <mxCell id="jSnhueOkiro6R8cV-VZZ-233" value="Global unicast" style="rounded=0;whiteSpace=wrap;html=1;" vertex="1" parent="1">
          <mxGeometry x="1670" y="1518.75" width="90" height="27.5" as="geometry" />
        </mxCell>
        <mxCell id="jSnhueOkiro6R8cV-VZZ-241" style="edgeStyle=orthogonalEdgeStyle;rounded=0;orthogonalLoop=1;jettySize=auto;html=1;entryX=0;entryY=0.5;entryDx=0;entryDy=0;" edge="1" parent="1" source="jSnhueOkiro6R8cV-VZZ-234" target="jSnhueOkiro6R8cV-VZZ-240">
          <mxGeometry relative="1" as="geometry" />
        </mxCell>
        <mxCell id="jSnhueOkiro6R8cV-VZZ-234" value="Link-local" style="rounded=0;whiteSpace=wrap;html=1;" vertex="1" parent="1">
          <mxGeometry x="1670" y="1466.25" width="90" height="26.25" as="geometry" />
        </mxCell>
        <mxCell id="jSnhueOkiro6R8cV-VZZ-242" style="edgeStyle=orthogonalEdgeStyle;rounded=0;orthogonalLoop=1;jettySize=auto;html=1;" edge="1" parent="1" source="jSnhueOkiro6R8cV-VZZ-235" target="jSnhueOkiro6R8cV-VZZ-239">
          <mxGeometry relative="1" as="geometry" />
        </mxCell>
        <mxCell id="jSnhueOkiro6R8cV-VZZ-235" value="Multicast" style="rounded=0;whiteSpace=wrap;html=1;" vertex="1" parent="1">
          <mxGeometry x="1670" y="1420" width="90" height="25" as="geometry" />
        </mxCell>
        <mxCell id="jSnhueOkiro6R8cV-VZZ-238" style="edgeStyle=orthogonalEdgeStyle;rounded=0;orthogonalLoop=1;jettySize=auto;html=1;entryX=0;entryY=0.4;entryDx=0;entryDy=0;entryPerimeter=0;" edge="1" parent="1" source="jSnhueOkiro6R8cV-VZZ-230" target="jSnhueOkiro6R8cV-VZZ-235">
          <mxGeometry relative="1" as="geometry" />
        </mxCell>
        <mxCell id="jSnhueOkiro6R8cV-VZZ-239" value="Začíná vždy FF00::/8" style="rounded=0;whiteSpace=wrap;html=1;" vertex="1" parent="1">
          <mxGeometry x="1800" y="1418.75" width="120" height="27.5" as="geometry" />
        </mxCell>
        <mxCell id="jSnhueOkiro6R8cV-VZZ-240" value="Začíná vždy FE80::/10" style="rounded=0;whiteSpace=wrap;html=1;" vertex="1" parent="1">
          <mxGeometry x="1800" y="1466.88" width="130" height="25.62" as="geometry" />
        </mxCell>
        <mxCell id="jSnhueOkiro6R8cV-VZZ-247" value="" style="edgeStyle=orthogonalEdgeStyle;rounded=0;orthogonalLoop=1;jettySize=auto;html=1;" edge="1" parent="1" source="jSnhueOkiro6R8cV-VZZ-244" target="jSnhueOkiro6R8cV-VZZ-246">
          <mxGeometry relative="1" as="geometry" />
        </mxCell>
        <mxCell id="jSnhueOkiro6R8cV-VZZ-244" value="&lt;b&gt;ACL&lt;/b&gt;" style="rounded=0;whiteSpace=wrap;html=1;fillColor=#f8cecc;strokeColor=#b85450;" vertex="1" parent="1">
          <mxGeometry x="210" y="1590" width="120" height="60" as="geometry" />
        </mxCell>
        <mxCell id="jSnhueOkiro6R8cV-VZZ-246" value="Filtruje packety podle IP adres zdroje a cíle" style="rounded=0;whiteSpace=wrap;html=1;" vertex="1" parent="1">
          <mxGeometry x="-90" y="1602.5" width="250" height="35" as="geometry" />
        </mxCell>
        <mxCell id="jSnhueOkiro6R8cV-VZZ-252" value="" style="edgeStyle=orthogonalEdgeStyle;rounded=0;orthogonalLoop=1;jettySize=auto;html=1;" edge="1" parent="1" source="jSnhueOkiro6R8cV-VZZ-249" target="jSnhueOkiro6R8cV-VZZ-251">
          <mxGeometry relative="1" as="geometry" />
        </mxCell>
        <mxCell id="jSnhueOkiro6R8cV-VZZ-249" value="&lt;b&gt;Funkce:&lt;/b&gt;&lt;div&gt;Zajišťuje adresování v rámci jedné fyzické sítě&lt;/div&gt;&lt;div&gt;Provádí rámcování do framu&lt;/div&gt;&lt;div&gt;Řídí přístup k médiu&lt;/div&gt;&lt;div&gt;Detekuje a opravuje chyby v přenosu&lt;/div&gt;" style="rounded=0;whiteSpace=wrap;html=1;fillColor=#cdeb8b;strokeColor=#36393d;" vertex="1" parent="1">
          <mxGeometry x="647" y="2140" width="269" height="80" as="geometry" />
        </mxCell>
        <mxCell id="jSnhueOkiro6R8cV-VZZ-251" value="&lt;b&gt;PDU&lt;/b&gt;&lt;div&gt;Frame&lt;/div&gt;&lt;div&gt;MAC adresy&lt;/div&gt;" style="rounded=0;whiteSpace=wrap;html=1;fillColor=#cdeb8b;strokeColor=#36393d;" vertex="1" parent="1">
          <mxGeometry x="721.5" y="2250" width="120" height="60" as="geometry" />
        </mxCell>
        <mxCell id="jSnhueOkiro6R8cV-VZZ-259" style="edgeStyle=orthogonalEdgeStyle;rounded=0;orthogonalLoop=1;jettySize=auto;html=1;entryX=1;entryY=0.5;entryDx=0;entryDy=0;" edge="1" parent="1" source="jSnhueOkiro6R8cV-VZZ-253" target="jSnhueOkiro6R8cV-VZZ-255">
          <mxGeometry relative="1" as="geometry" />
        </mxCell>
        <mxCell id="jSnhueOkiro6R8cV-VZZ-260" style="edgeStyle=orthogonalEdgeStyle;rounded=0;orthogonalLoop=1;jettySize=auto;html=1;" edge="1" parent="1" source="jSnhueOkiro6R8cV-VZZ-253" target="jSnhueOkiro6R8cV-VZZ-256">
          <mxGeometry relative="1" as="geometry" />
        </mxCell>
        <mxCell id="jSnhueOkiro6R8cV-VZZ-261" style="edgeStyle=orthogonalEdgeStyle;rounded=0;orthogonalLoop=1;jettySize=auto;html=1;entryX=1;entryY=0.5;entryDx=0;entryDy=0;" edge="1" parent="1" source="jSnhueOkiro6R8cV-VZZ-253" target="jSnhueOkiro6R8cV-VZZ-257">
          <mxGeometry relative="1" as="geometry" />
        </mxCell>
        <mxCell id="jSnhueOkiro6R8cV-VZZ-262" style="edgeStyle=orthogonalEdgeStyle;rounded=0;orthogonalLoop=1;jettySize=auto;html=1;entryX=1;entryY=0.5;entryDx=0;entryDy=0;" edge="1" parent="1" source="jSnhueOkiro6R8cV-VZZ-253" target="jSnhueOkiro6R8cV-VZZ-258">
          <mxGeometry relative="1" as="geometry" />
        </mxCell>
        <mxCell id="jSnhueOkiro6R8cV-VZZ-253" value="&lt;b&gt;Protokoly&lt;/b&gt;" style="rounded=0;whiteSpace=wrap;html=1;fillColor=#f9f7ed;strokeColor=#36393d;" vertex="1" parent="1">
          <mxGeometry x="200" y="2040" width="120" height="60" as="geometry" />
        </mxCell>
        <mxCell id="jSnhueOkiro6R8cV-VZZ-255" value="Ethernet (IEEE 802.3)&lt;div&gt;Nejběžnější v LAN sítích&lt;/div&gt;" style="rounded=0;whiteSpace=wrap;html=1;" vertex="1" parent="1">
          <mxGeometry x="-40" y="1975" width="150" height="40" as="geometry" />
        </mxCell>
        <mxCell id="jSnhueOkiro6R8cV-VZZ-256" value="Wi-Fi (IEEE 802.11)&lt;div&gt;Bezdrátová linková vrstva&lt;/div&gt;" style="rounded=0;whiteSpace=wrap;html=1;" vertex="1" parent="1">
          <mxGeometry x="-50" y="2025" width="160" height="40" as="geometry" />
        </mxCell>
        <mxCell id="jSnhueOkiro6R8cV-VZZ-257" value="PPP&lt;div&gt;Spojení mezi dvěma routery&lt;/div&gt;" style="rounded=0;whiteSpace=wrap;html=1;" vertex="1" parent="1">
          <mxGeometry x="-80" y="2075" width="190" height="40" as="geometry" />
        </mxCell>
        <mxCell id="jSnhueOkiro6R8cV-VZZ-258" value="VLAN Tagging (802.1Q)&lt;div&gt;Umožňuje rozdělit fyzickou síť na více virtuálních&lt;/div&gt;" style="rounded=0;whiteSpace=wrap;html=1;" vertex="1" parent="1">
          <mxGeometry x="-170" y="2125" width="280" height="40" as="geometry" />
        </mxCell>
        <mxCell id="jSnhueOkiro6R8cV-VZZ-267" value="" style="edgeStyle=orthogonalEdgeStyle;rounded=0;orthogonalLoop=1;jettySize=auto;html=1;" edge="1" parent="1" source="jSnhueOkiro6R8cV-VZZ-263" target="jSnhueOkiro6R8cV-VZZ-266">
          <mxGeometry relative="1" as="geometry" />
        </mxCell>
        <mxCell id="jSnhueOkiro6R8cV-VZZ-268" style="edgeStyle=orthogonalEdgeStyle;rounded=0;orthogonalLoop=1;jettySize=auto;html=1;entryX=0;entryY=0.5;entryDx=0;entryDy=0;" edge="1" parent="1" source="jSnhueOkiro6R8cV-VZZ-263" target="jSnhueOkiro6R8cV-VZZ-265">
          <mxGeometry relative="1" as="geometry" />
        </mxCell>
        <mxCell id="jSnhueOkiro6R8cV-VZZ-279" style="edgeStyle=orthogonalEdgeStyle;rounded=0;orthogonalLoop=1;jettySize=auto;html=1;entryX=0;entryY=0.5;entryDx=0;entryDy=0;" edge="1" parent="1" source="jSnhueOkiro6R8cV-VZZ-263" target="jSnhueOkiro6R8cV-VZZ-278">
          <mxGeometry relative="1" as="geometry" />
        </mxCell>
        <mxCell id="jSnhueOkiro6R8cV-VZZ-263" value="&lt;b&gt;MAC adresa&lt;/b&gt;" style="rounded=0;whiteSpace=wrap;html=1;fillColor=#e1d5e7;strokeColor=#9673a6;" vertex="1" parent="1">
          <mxGeometry x="827" y="2040" width="120" height="60" as="geometry" />
        </mxCell>
        <mxCell id="jSnhueOkiro6R8cV-VZZ-265" value="48 bajtů" style="rounded=0;whiteSpace=wrap;html=1;" vertex="1" parent="1">
          <mxGeometry x="1000" y="2035" width="90" height="30" as="geometry" />
        </mxCell>
        <mxCell id="jSnhueOkiro6R8cV-VZZ-266" value="12 číslic rozdělených do 6 dvojic" style="rounded=0;whiteSpace=wrap;html=1;" vertex="1" parent="1">
          <mxGeometry x="1000" y="2080" width="190" height="30" as="geometry" />
        </mxCell>
        <mxCell id="jSnhueOkiro6R8cV-VZZ-274" value="" style="edgeStyle=orthogonalEdgeStyle;rounded=0;orthogonalLoop=1;jettySize=auto;html=1;" edge="1" parent="1" source="jSnhueOkiro6R8cV-VZZ-269" target="jSnhueOkiro6R8cV-VZZ-272">
          <mxGeometry relative="1" as="geometry" />
        </mxCell>
        <mxCell id="jSnhueOkiro6R8cV-VZZ-275" style="edgeStyle=orthogonalEdgeStyle;rounded=0;orthogonalLoop=1;jettySize=auto;html=1;entryX=1;entryY=0.5;entryDx=0;entryDy=0;" edge="1" parent="1" source="jSnhueOkiro6R8cV-VZZ-269" target="jSnhueOkiro6R8cV-VZZ-273">
          <mxGeometry relative="1" as="geometry" />
        </mxCell>
        <mxCell id="jSnhueOkiro6R8cV-VZZ-269" value="&lt;b&gt;Podvrstvy&lt;/b&gt;" style="rounded=0;whiteSpace=wrap;html=1;fillColor=#e1d5e7;strokeColor=#9673a6;" vertex="1" parent="1">
          <mxGeometry x="200" y="2240" width="120" height="60" as="geometry" />
        </mxCell>
        <mxCell id="jSnhueOkiro6R8cV-VZZ-277" value="" style="edgeStyle=orthogonalEdgeStyle;rounded=0;orthogonalLoop=1;jettySize=auto;html=1;" edge="1" parent="1" source="jSnhueOkiro6R8cV-VZZ-272" target="jSnhueOkiro6R8cV-VZZ-276">
          <mxGeometry relative="1" as="geometry">
            <Array as="points">
              <mxPoint x="-30" y="2270" />
              <mxPoint x="-30" y="2220" />
            </Array>
          </mxGeometry>
        </mxCell>
        <mxCell id="jSnhueOkiro6R8cV-VZZ-283" style="edgeStyle=orthogonalEdgeStyle;rounded=0;orthogonalLoop=1;jettySize=auto;html=1;entryX=1;entryY=0.5;entryDx=0;entryDy=0;" edge="1" parent="1" source="jSnhueOkiro6R8cV-VZZ-272" target="jSnhueOkiro6R8cV-VZZ-282">
          <mxGeometry relative="1" as="geometry">
            <Array as="points">
              <mxPoint x="-30" y="2270" />
              <mxPoint x="-30" y="2290" />
            </Array>
          </mxGeometry>
        </mxCell>
        <mxCell id="jSnhueOkiro6R8cV-VZZ-272" value="LLC" style="rounded=0;whiteSpace=wrap;html=1;fillColor=#e1d5e7;strokeColor=#9673a6;" vertex="1" parent="1">
          <mxGeometry x="10" y="2240" width="120" height="60" as="geometry" />
        </mxCell>
        <mxCell id="jSnhueOkiro6R8cV-VZZ-285" style="edgeStyle=orthogonalEdgeStyle;rounded=0;orthogonalLoop=1;jettySize=auto;html=1;entryX=1;entryY=0.5;entryDx=0;entryDy=0;" edge="1" parent="1" source="jSnhueOkiro6R8cV-VZZ-273" target="jSnhueOkiro6R8cV-VZZ-284">
          <mxGeometry relative="1" as="geometry">
            <Array as="points">
              <mxPoint x="-40" y="2400" />
              <mxPoint x="-40" y="2448" />
            </Array>
          </mxGeometry>
        </mxCell>
        <mxCell id="jSnhueOkiro6R8cV-VZZ-287" style="edgeStyle=orthogonalEdgeStyle;rounded=0;orthogonalLoop=1;jettySize=auto;html=1;entryX=1;entryY=0.5;entryDx=0;entryDy=0;" edge="1" parent="1" source="jSnhueOkiro6R8cV-VZZ-273" target="jSnhueOkiro6R8cV-VZZ-280">
          <mxGeometry relative="1" as="geometry" />
        </mxCell>
        <mxCell id="jSnhueOkiro6R8cV-VZZ-273" value="MAC" style="rounded=0;whiteSpace=wrap;html=1;fillColor=#e1d5e7;strokeColor=#9673a6;" vertex="1" parent="1">
          <mxGeometry x="10" y="2370" width="120" height="60" as="geometry" />
        </mxCell>
        <mxCell id="jSnhueOkiro6R8cV-VZZ-276" value="Poskytuje rozhraní mezi síťovou a fyzickou vrstvou&lt;div&gt;Zajišťuje řízení toku a detekci chyb&lt;/div&gt;" style="rounded=0;whiteSpace=wrap;html=1;" vertex="1" parent="1">
          <mxGeometry x="-370" y="2200" width="290" height="40" as="geometry" />
        </mxCell>
        <mxCell id="jSnhueOkiro6R8cV-VZZ-278" value="Unicast, Multicast, Broadcast" style="rounded=0;whiteSpace=wrap;html=1;" vertex="1" parent="1">
          <mxGeometry x="1000" y="2125" width="190" height="25" as="geometry" />
        </mxCell>
        <mxCell id="jSnhueOkiro6R8cV-VZZ-280" value="Řídí kdo a kdy může vysílat na sdíleném médiu&lt;div&gt;Formátuje framy a přidává headery a FCS&lt;/div&gt;" style="rounded=0;whiteSpace=wrap;html=1;" vertex="1" parent="1">
          <mxGeometry x="-370" y="2338" width="280" height="60" as="geometry" />
        </mxCell>
        <mxCell id="jSnhueOkiro6R8cV-VZZ-282" value="LLC Header&lt;div&gt;Informace ve framu, které pomáhají multiplexovat protokoly&lt;/div&gt;" style="rounded=0;whiteSpace=wrap;html=1;" vertex="1" parent="1">
          <mxGeometry x="-294" y="2260" width="210" height="60" as="geometry" />
        </mxCell>
        <mxCell id="jSnhueOkiro6R8cV-VZZ-284" value="CSMA/CD&lt;div&gt;Poslouchá na médiu, zda je volné, vyšle data a při kolizi detekuje problém a opakuje přenos&lt;/div&gt;" style="rounded=0;whiteSpace=wrap;html=1;" vertex="1" parent="1">
          <mxGeometry x="-294" y="2418" width="204" height="60" as="geometry" />
        </mxCell>
        <mxCell id="jSnhueOkiro6R8cV-VZZ-294" value="" style="edgeStyle=orthogonalEdgeStyle;rounded=0;orthogonalLoop=1;jettySize=auto;html=1;" edge="1" parent="1" source="jSnhueOkiro6R8cV-VZZ-288" target="jSnhueOkiro6R8cV-VZZ-290">
          <mxGeometry relative="1" as="geometry" />
        </mxCell>
        <mxCell id="jSnhueOkiro6R8cV-VZZ-299" style="edgeStyle=orthogonalEdgeStyle;rounded=0;orthogonalLoop=1;jettySize=auto;html=1;entryX=0;entryY=0.5;entryDx=0;entryDy=0;" edge="1" parent="1" source="jSnhueOkiro6R8cV-VZZ-288" target="jSnhueOkiro6R8cV-VZZ-295">
          <mxGeometry relative="1" as="geometry">
            <Array as="points">
              <mxPoint x="680" y="2503" />
            </Array>
          </mxGeometry>
        </mxCell>
        <mxCell id="jSnhueOkiro6R8cV-VZZ-288" value="&lt;b&gt;ARP&lt;/b&gt;" style="rounded=0;whiteSpace=wrap;html=1;fillColor=#e1d5e7;strokeColor=#9673a6;" vertex="1" parent="1">
          <mxGeometry x="626" y="2338" width="120" height="60" as="geometry" />
        </mxCell>
        <mxCell id="jSnhueOkiro6R8cV-VZZ-290" value="Slouží k překladu IP adresy na MAC adresu" style="rounded=0;whiteSpace=wrap;html=1;" vertex="1" parent="1">
          <mxGeometry x="793" y="2338" width="235.5" height="60" as="geometry" />
        </mxCell>
        <mxCell id="jSnhueOkiro6R8cV-VZZ-300" value="" style="edgeStyle=orthogonalEdgeStyle;rounded=0;orthogonalLoop=1;jettySize=auto;html=1;" edge="1" parent="1" source="jSnhueOkiro6R8cV-VZZ-295" target="jSnhueOkiro6R8cV-VZZ-296">
          <mxGeometry relative="1" as="geometry" />
        </mxCell>
        <mxCell id="jSnhueOkiro6R8cV-VZZ-295" value="Zařízení chce poslat data na konkrétní IPv4 adresu, ale zná jen IP, ne MAC" style="ellipse;whiteSpace=wrap;html=1;aspect=fixed;fillColor=#ffff88;strokeColor=#36393d;" vertex="1" parent="1">
          <mxGeometry x="750" y="2438" width="130" height="130" as="geometry" />
        </mxCell>
        <mxCell id="jSnhueOkiro6R8cV-VZZ-301" value="" style="edgeStyle=orthogonalEdgeStyle;rounded=0;orthogonalLoop=1;jettySize=auto;html=1;" edge="1" parent="1" source="jSnhueOkiro6R8cV-VZZ-296" target="jSnhueOkiro6R8cV-VZZ-297">
          <mxGeometry relative="1" as="geometry" />
        </mxCell>
        <mxCell id="jSnhueOkiro6R8cV-VZZ-296" value="Vyšle ARP Request (Broadcast)" style="ellipse;whiteSpace=wrap;html=1;aspect=fixed;fillColor=#ffff88;strokeColor=#36393d;" vertex="1" parent="1">
          <mxGeometry x="947" y="2438" width="130" height="130" as="geometry" />
        </mxCell>
        <mxCell id="jSnhueOkiro6R8cV-VZZ-302" value="" style="edgeStyle=orthogonalEdgeStyle;rounded=0;orthogonalLoop=1;jettySize=auto;html=1;" edge="1" parent="1" source="jSnhueOkiro6R8cV-VZZ-297" target="jSnhueOkiro6R8cV-VZZ-298">
          <mxGeometry relative="1" as="geometry" />
        </mxCell>
        <mxCell id="jSnhueOkiro6R8cV-VZZ-297" value="Zařízení s IP odpoví ARP Reply" style="ellipse;whiteSpace=wrap;html=1;aspect=fixed;fillColor=#ffff88;strokeColor=#36393d;" vertex="1" parent="1">
          <mxGeometry x="1140" y="2438" width="130" height="130" as="geometry" />
        </mxCell>
        <mxCell id="jSnhueOkiro6R8cV-VZZ-298" value="Odesílatel uloží tuto MAC do ARP table a může komunikovat" style="ellipse;whiteSpace=wrap;html=1;aspect=fixed;fillColor=#ffff88;strokeColor=#36393d;" vertex="1" parent="1">
          <mxGeometry x="1334" y="2438" width="130" height="130" as="geometry" />
        </mxCell>
        <mxCell id="jSnhueOkiro6R8cV-VZZ-306" value="" style="edgeStyle=orthogonalEdgeStyle;rounded=0;orthogonalLoop=1;jettySize=auto;html=1;" edge="1" parent="1" source="jSnhueOkiro6R8cV-VZZ-303" target="jSnhueOkiro6R8cV-VZZ-305">
          <mxGeometry relative="1" as="geometry" />
        </mxCell>
        <mxCell id="jSnhueOkiro6R8cV-VZZ-303" value="&lt;b&gt;Funkce:&lt;/b&gt;&lt;div&gt;Přenáší bity mezi zařízeními přes fyzické médium&lt;/div&gt;&lt;div&gt;Převádí digitální bity na elektrické, optické nebo rádiové signály&lt;/div&gt;&lt;div&gt;Řídí přenosovou rychlost a topologii fyzické sítě&lt;/div&gt;" style="rounded=0;whiteSpace=wrap;html=1;fillColor=#cdeb8b;strokeColor=#36393d;" vertex="1" parent="1">
          <mxGeometry x="591.5" y="2670" width="380" height="60" as="geometry" />
        </mxCell>
        <mxCell id="jSnhueOkiro6R8cV-VZZ-305" value="&lt;b&gt;PDU&lt;/b&gt;&lt;div&gt;Bit&lt;/div&gt;&lt;div&gt;Kabel&lt;/div&gt;" style="rounded=0;whiteSpace=wrap;html=1;fillColor=#cdeb8b;strokeColor=#36393d;" vertex="1" parent="1">
          <mxGeometry x="721.5" y="2760" width="120" height="60" as="geometry" />
        </mxCell>
        <mxCell id="jSnhueOkiro6R8cV-VZZ-313" style="edgeStyle=orthogonalEdgeStyle;rounded=0;orthogonalLoop=1;jettySize=auto;html=1;entryX=1;entryY=0.5;entryDx=0;entryDy=0;" edge="1" parent="1" source="jSnhueOkiro6R8cV-VZZ-307" target="jSnhueOkiro6R8cV-VZZ-310">
          <mxGeometry relative="1" as="geometry">
            <Array as="points">
              <mxPoint x="-20" y="2820" />
              <mxPoint x="-20" y="2710" />
            </Array>
          </mxGeometry>
        </mxCell>
        <mxCell id="jSnhueOkiro6R8cV-VZZ-314" style="edgeStyle=orthogonalEdgeStyle;rounded=0;orthogonalLoop=1;jettySize=auto;html=1;entryX=1;entryY=0.5;entryDx=0;entryDy=0;" edge="1" parent="1" source="jSnhueOkiro6R8cV-VZZ-307" target="jSnhueOkiro6R8cV-VZZ-309">
          <mxGeometry relative="1" as="geometry">
            <Array as="points">
              <mxPoint x="-20" y="2820" />
              <mxPoint x="-20" y="2930" />
            </Array>
          </mxGeometry>
        </mxCell>
        <mxCell id="jSnhueOkiro6R8cV-VZZ-315" style="edgeStyle=orthogonalEdgeStyle;rounded=0;orthogonalLoop=1;jettySize=auto;html=1;entryX=1;entryY=0.5;entryDx=0;entryDy=0;" edge="1" parent="1" source="jSnhueOkiro6R8cV-VZZ-307" target="jSnhueOkiro6R8cV-VZZ-311">
          <mxGeometry relative="1" as="geometry">
            <Array as="points">
              <mxPoint x="-20" y="2820" />
              <mxPoint x="-20" y="3020" />
            </Array>
          </mxGeometry>
        </mxCell>
        <mxCell id="jSnhueOkiro6R8cV-VZZ-341" style="edgeStyle=orthogonalEdgeStyle;rounded=0;orthogonalLoop=1;jettySize=auto;html=1;entryX=1;entryY=0.5;entryDx=0;entryDy=0;" edge="1" parent="1" source="jSnhueOkiro6R8cV-VZZ-307" target="jSnhueOkiro6R8cV-VZZ-312">
          <mxGeometry relative="1" as="geometry">
            <Array as="points">
              <mxPoint x="-20" y="2820" />
              <mxPoint x="-20" y="3120" />
            </Array>
          </mxGeometry>
        </mxCell>
        <mxCell id="jSnhueOkiro6R8cV-VZZ-409" style="edgeStyle=orthogonalEdgeStyle;rounded=0;orthogonalLoop=1;jettySize=auto;html=1;entryX=0.5;entryY=0;entryDx=0;entryDy=0;" edge="1" parent="1" source="jSnhueOkiro6R8cV-VZZ-307" target="jSnhueOkiro6R8cV-VZZ-400">
          <mxGeometry relative="1" as="geometry" />
        </mxCell>
        <mxCell id="jSnhueOkiro6R8cV-VZZ-307" value="Kabeláž" style="whiteSpace=wrap;html=1;rounded=0;fillColor=#f5f5f5;fontColor=#333333;strokeColor=#666666;" vertex="1" parent="1">
          <mxGeometry x="204" y="2790" width="120" height="60" as="geometry" />
        </mxCell>
        <mxCell id="jSnhueOkiro6R8cV-VZZ-338" value="" style="edgeStyle=orthogonalEdgeStyle;rounded=0;orthogonalLoop=1;jettySize=auto;html=1;" edge="1" parent="1" source="jSnhueOkiro6R8cV-VZZ-309" target="jSnhueOkiro6R8cV-VZZ-337">
          <mxGeometry relative="1" as="geometry" />
        </mxCell>
        <mxCell id="jSnhueOkiro6R8cV-VZZ-309" value="Coaxial" style="rounded=0;whiteSpace=wrap;html=1;" vertex="1" parent="1">
          <mxGeometry x="-170" y="2900" width="120" height="60" as="geometry" />
        </mxCell>
        <mxCell id="jSnhueOkiro6R8cV-VZZ-317" style="edgeStyle=orthogonalEdgeStyle;rounded=0;orthogonalLoop=1;jettySize=auto;html=1;entryX=1;entryY=0.5;entryDx=0;entryDy=0;" edge="1" parent="1" source="jSnhueOkiro6R8cV-VZZ-310" target="jSnhueOkiro6R8cV-VZZ-316">
          <mxGeometry relative="1" as="geometry" />
        </mxCell>
        <mxCell id="jSnhueOkiro6R8cV-VZZ-320" style="edgeStyle=orthogonalEdgeStyle;rounded=0;orthogonalLoop=1;jettySize=auto;html=1;entryX=1;entryY=0.5;entryDx=0;entryDy=0;" edge="1" parent="1" source="jSnhueOkiro6R8cV-VZZ-310" target="jSnhueOkiro6R8cV-VZZ-318">
          <mxGeometry relative="1" as="geometry">
            <Array as="points">
              <mxPoint x="-107" y="2560" />
            </Array>
          </mxGeometry>
        </mxCell>
        <mxCell id="jSnhueOkiro6R8cV-VZZ-327" style="edgeStyle=orthogonalEdgeStyle;rounded=0;orthogonalLoop=1;jettySize=auto;html=1;entryX=1;entryY=0.5;entryDx=0;entryDy=0;" edge="1" parent="1" source="jSnhueOkiro6R8cV-VZZ-310" target="jSnhueOkiro6R8cV-VZZ-326">
          <mxGeometry relative="1" as="geometry">
            <Array as="points">
              <mxPoint x="-107" y="2770" />
            </Array>
          </mxGeometry>
        </mxCell>
        <mxCell id="jSnhueOkiro6R8cV-VZZ-310" value="Twisted pair" style="rounded=0;whiteSpace=wrap;html=1;" vertex="1" parent="1">
          <mxGeometry x="-170" y="2680" width="120" height="60" as="geometry" />
        </mxCell>
        <mxCell id="jSnhueOkiro6R8cV-VZZ-340" value="" style="edgeStyle=orthogonalEdgeStyle;rounded=0;orthogonalLoop=1;jettySize=auto;html=1;" edge="1" parent="1" source="jSnhueOkiro6R8cV-VZZ-311" target="jSnhueOkiro6R8cV-VZZ-339">
          <mxGeometry relative="1" as="geometry" />
        </mxCell>
        <mxCell id="jSnhueOkiro6R8cV-VZZ-311" value="Fiber optic" style="rounded=0;whiteSpace=wrap;html=1;" vertex="1" parent="1">
          <mxGeometry x="-170" y="2990" width="120" height="60" as="geometry" />
        </mxCell>
        <mxCell id="jSnhueOkiro6R8cV-VZZ-343" value="" style="edgeStyle=orthogonalEdgeStyle;rounded=0;orthogonalLoop=1;jettySize=auto;html=1;" edge="1" parent="1" source="jSnhueOkiro6R8cV-VZZ-312" target="jSnhueOkiro6R8cV-VZZ-342">
          <mxGeometry relative="1" as="geometry" />
        </mxCell>
        <mxCell id="jSnhueOkiro6R8cV-VZZ-312" value="Bezdrát" style="rounded=0;whiteSpace=wrap;html=1;" vertex="1" parent="1">
          <mxGeometry x="-170" y="3090" width="120" height="60" as="geometry" />
        </mxCell>
        <mxCell id="jSnhueOkiro6R8cV-VZZ-316" value="Nejrozšířenější, kroucené proti sobe pro snížení rušení" style="rounded=0;whiteSpace=wrap;html=1;" vertex="1" parent="1">
          <mxGeometry x="-512" y="2695" width="300" height="30" as="geometry" />
        </mxCell>
        <mxCell id="jSnhueOkiro6R8cV-VZZ-323" value="" style="edgeStyle=orthogonalEdgeStyle;rounded=0;orthogonalLoop=1;jettySize=auto;html=1;" edge="1" parent="1" source="jSnhueOkiro6R8cV-VZZ-318" target="jSnhueOkiro6R8cV-VZZ-322">
          <mxGeometry relative="1" as="geometry" />
        </mxCell>
        <mxCell id="jSnhueOkiro6R8cV-VZZ-318" value="STP" style="rounded=0;whiteSpace=wrap;html=1;" vertex="1" parent="1">
          <mxGeometry x="-332" y="2530" width="120" height="60" as="geometry" />
        </mxCell>
        <mxCell id="jSnhueOkiro6R8cV-VZZ-325" value="" style="edgeStyle=orthogonalEdgeStyle;rounded=0;orthogonalLoop=1;jettySize=auto;html=1;" edge="1" parent="1" source="jSnhueOkiro6R8cV-VZZ-319" target="jSnhueOkiro6R8cV-VZZ-324">
          <mxGeometry relative="1" as="geometry" />
        </mxCell>
        <mxCell id="jSnhueOkiro6R8cV-VZZ-319" value="UTP" style="rounded=0;whiteSpace=wrap;html=1;" vertex="1" parent="1">
          <mxGeometry x="-332" y="2620" width="120" height="60" as="geometry" />
        </mxCell>
        <mxCell id="jSnhueOkiro6R8cV-VZZ-321" style="edgeStyle=orthogonalEdgeStyle;rounded=0;orthogonalLoop=1;jettySize=auto;html=1;entryX=1.003;entryY=0.378;entryDx=0;entryDy=0;entryPerimeter=0;" edge="1" parent="1" source="jSnhueOkiro6R8cV-VZZ-310" target="jSnhueOkiro6R8cV-VZZ-319">
          <mxGeometry relative="1" as="geometry">
            <Array as="points">
              <mxPoint x="-107" y="2643" />
            </Array>
          </mxGeometry>
        </mxCell>
        <mxCell id="jSnhueOkiro6R8cV-VZZ-322" value="Stíněná kroucená dvojlinka" style="rounded=0;whiteSpace=wrap;html=1;" vertex="1" parent="1">
          <mxGeometry x="-477" y="2540" width="120" height="40" as="geometry" />
        </mxCell>
        <mxCell id="jSnhueOkiro6R8cV-VZZ-324" value="Nestíněná kroucená dvojlinka" style="rounded=0;whiteSpace=wrap;html=1;" vertex="1" parent="1">
          <mxGeometry x="-477" y="2620" width="120" height="60" as="geometry" />
        </mxCell>
        <mxCell id="jSnhueOkiro6R8cV-VZZ-333" value="" style="edgeStyle=orthogonalEdgeStyle;rounded=0;orthogonalLoop=1;jettySize=auto;html=1;" edge="1" parent="1" source="jSnhueOkiro6R8cV-VZZ-326" target="jSnhueOkiro6R8cV-VZZ-329">
          <mxGeometry relative="1" as="geometry" />
        </mxCell>
        <mxCell id="jSnhueOkiro6R8cV-VZZ-334" style="edgeStyle=orthogonalEdgeStyle;rounded=0;orthogonalLoop=1;jettySize=auto;html=1;entryX=1;entryY=0.5;entryDx=0;entryDy=0;" edge="1" parent="1" source="jSnhueOkiro6R8cV-VZZ-326" target="jSnhueOkiro6R8cV-VZZ-328">
          <mxGeometry relative="1" as="geometry" />
        </mxCell>
        <mxCell id="jSnhueOkiro6R8cV-VZZ-335" style="edgeStyle=orthogonalEdgeStyle;rounded=0;orthogonalLoop=1;jettySize=auto;html=1;entryX=1;entryY=0.5;entryDx=0;entryDy=0;" edge="1" parent="1" source="jSnhueOkiro6R8cV-VZZ-326" target="jSnhueOkiro6R8cV-VZZ-330">
          <mxGeometry relative="1" as="geometry" />
        </mxCell>
        <mxCell id="jSnhueOkiro6R8cV-VZZ-336" style="edgeStyle=orthogonalEdgeStyle;rounded=0;orthogonalLoop=1;jettySize=auto;html=1;entryX=1;entryY=0.5;entryDx=0;entryDy=0;" edge="1" parent="1" source="jSnhueOkiro6R8cV-VZZ-326" target="jSnhueOkiro6R8cV-VZZ-332">
          <mxGeometry relative="1" as="geometry" />
        </mxCell>
        <mxCell id="jSnhueOkiro6R8cV-VZZ-326" value="Kategorie" style="rounded=0;whiteSpace=wrap;html=1;" vertex="1" parent="1">
          <mxGeometry x="-327" y="2740" width="120" height="60" as="geometry" />
        </mxCell>
        <mxCell id="jSnhueOkiro6R8cV-VZZ-328" value="Cat3 - 10Mbps" style="rounded=0;whiteSpace=wrap;html=1;" vertex="1" parent="1">
          <mxGeometry x="-491" y="2740" width="100" height="30" as="geometry" />
        </mxCell>
        <mxCell id="jSnhueOkiro6R8cV-VZZ-329" value="Cat5 - 100Mbps" style="rounded=0;whiteSpace=wrap;html=1;" vertex="1" parent="1">
          <mxGeometry x="-491" y="2780" width="100" height="30" as="geometry" />
        </mxCell>
        <mxCell id="jSnhueOkiro6R8cV-VZZ-330" value="Cat5e - 1Gbps" style="rounded=0;whiteSpace=wrap;html=1;" vertex="1" parent="1">
          <mxGeometry x="-491" y="2820" width="100" height="30" as="geometry" />
        </mxCell>
        <mxCell id="jSnhueOkiro6R8cV-VZZ-332" value="Cat7 - 10Gbps" style="rounded=0;whiteSpace=wrap;html=1;" vertex="1" parent="1">
          <mxGeometry x="-491" y="2860" width="100" height="30" as="geometry" />
        </mxCell>
        <mxCell id="jSnhueOkiro6R8cV-VZZ-337" value="Jeden vodič obklopený izolací a plášťěm&lt;div&gt;Odolný vůči rušení&lt;/div&gt;" style="rounded=0;whiteSpace=wrap;html=1;" vertex="1" parent="1">
          <mxGeometry x="-491" y="2910" width="240" height="40" as="geometry" />
        </mxCell>
        <mxCell id="jSnhueOkiro6R8cV-VZZ-339" value="Přenos světelných impulsů&lt;div&gt;Velmi vysoká rychlost a dosah&lt;/div&gt;" style="rounded=0;whiteSpace=wrap;html=1;" vertex="1" parent="1">
          <mxGeometry x="-464" y="3000" width="210" height="40" as="geometry" />
        </mxCell>
        <mxCell id="jSnhueOkiro6R8cV-VZZ-342" value="Přenos pomocí elektromagnetických vln" style="rounded=0;whiteSpace=wrap;html=1;" vertex="1" parent="1">
          <mxGeometry x="-484" y="3105" width="230" height="30" as="geometry" />
        </mxCell>
        <mxCell id="jSnhueOkiro6R8cV-VZZ-349" value="" style="edgeStyle=orthogonalEdgeStyle;rounded=0;orthogonalLoop=1;jettySize=auto;html=1;" edge="1" parent="1" source="jSnhueOkiro6R8cV-VZZ-344" target="jSnhueOkiro6R8cV-VZZ-347">
          <mxGeometry relative="1" as="geometry" />
        </mxCell>
        <mxCell id="jSnhueOkiro6R8cV-VZZ-350" style="edgeStyle=orthogonalEdgeStyle;rounded=0;orthogonalLoop=1;jettySize=auto;html=1;entryX=0.5;entryY=0;entryDx=0;entryDy=0;" edge="1" parent="1" source="jSnhueOkiro6R8cV-VZZ-344" target="jSnhueOkiro6R8cV-VZZ-346">
          <mxGeometry relative="1" as="geometry" />
        </mxCell>
        <mxCell id="jSnhueOkiro6R8cV-VZZ-351" style="edgeStyle=orthogonalEdgeStyle;rounded=0;orthogonalLoop=1;jettySize=auto;html=1;entryX=0.5;entryY=0;entryDx=0;entryDy=0;" edge="1" parent="1" source="jSnhueOkiro6R8cV-VZZ-344" target="jSnhueOkiro6R8cV-VZZ-348">
          <mxGeometry relative="1" as="geometry" />
        </mxCell>
        <mxCell id="jSnhueOkiro6R8cV-VZZ-344" value="Konektory" style="rounded=0;whiteSpace=wrap;html=1;fillColor=#f5f5f5;fontColor=#333333;strokeColor=#666666;" vertex="1" parent="1">
          <mxGeometry x="620" y="2870" width="120" height="60" as="geometry" />
        </mxCell>
        <mxCell id="jSnhueOkiro6R8cV-VZZ-353" value="" style="edgeStyle=orthogonalEdgeStyle;rounded=0;orthogonalLoop=1;jettySize=auto;html=1;" edge="1" parent="1" source="jSnhueOkiro6R8cV-VZZ-346" target="jSnhueOkiro6R8cV-VZZ-352">
          <mxGeometry relative="1" as="geometry" />
        </mxCell>
        <mxCell id="jSnhueOkiro6R8cV-VZZ-346" value="Ethernet kroucená dvojlinka" style="rounded=0;whiteSpace=wrap;html=1;" vertex="1" parent="1">
          <mxGeometry x="492" y="2975" width="120" height="40" as="geometry" />
        </mxCell>
        <mxCell id="jSnhueOkiro6R8cV-VZZ-355" value="" style="edgeStyle=orthogonalEdgeStyle;rounded=0;orthogonalLoop=1;jettySize=auto;html=1;" edge="1" parent="1" source="jSnhueOkiro6R8cV-VZZ-347" target="jSnhueOkiro6R8cV-VZZ-354">
          <mxGeometry relative="1" as="geometry" />
        </mxCell>
        <mxCell id="jSnhueOkiro6R8cV-VZZ-347" value="Optické vlákno" style="rounded=0;whiteSpace=wrap;html=1;" vertex="1" parent="1">
          <mxGeometry x="620" y="2980" width="120" height="30" as="geometry" />
        </mxCell>
        <mxCell id="jSnhueOkiro6R8cV-VZZ-357" value="" style="edgeStyle=orthogonalEdgeStyle;rounded=0;orthogonalLoop=1;jettySize=auto;html=1;" edge="1" parent="1" source="jSnhueOkiro6R8cV-VZZ-348" target="jSnhueOkiro6R8cV-VZZ-356">
          <mxGeometry relative="1" as="geometry" />
        </mxCell>
        <mxCell id="jSnhueOkiro6R8cV-VZZ-348" value="Coaxial" style="rounded=0;whiteSpace=wrap;html=1;" vertex="1" parent="1">
          <mxGeometry x="748" y="2980" width="120" height="30" as="geometry" />
        </mxCell>
        <mxCell id="jSnhueOkiro6R8cV-VZZ-352" value="RJ-45" style="rounded=0;whiteSpace=wrap;html=1;" vertex="1" parent="1">
          <mxGeometry x="520" y="3045" width="64" height="25" as="geometry" />
        </mxCell>
        <mxCell id="jSnhueOkiro6R8cV-VZZ-354" value="LC, SC, ST" style="rounded=0;whiteSpace=wrap;html=1;" vertex="1" parent="1">
          <mxGeometry x="645" y="3037.5" width="70" height="40" as="geometry" />
        </mxCell>
        <mxCell id="jSnhueOkiro6R8cV-VZZ-356" value="BNC" style="rounded=0;whiteSpace=wrap;html=1;" vertex="1" parent="1">
          <mxGeometry x="779" y="3046.25" width="58" height="22.5" as="geometry" />
        </mxCell>
        <mxCell id="jSnhueOkiro6R8cV-VZZ-362" style="edgeStyle=orthogonalEdgeStyle;rounded=0;orthogonalLoop=1;jettySize=auto;html=1;entryX=0;entryY=0.5;entryDx=0;entryDy=0;" edge="1" parent="1" source="jSnhueOkiro6R8cV-VZZ-358" target="jSnhueOkiro6R8cV-VZZ-360">
          <mxGeometry relative="1" as="geometry" />
        </mxCell>
        <mxCell id="jSnhueOkiro6R8cV-VZZ-363" style="edgeStyle=orthogonalEdgeStyle;rounded=0;orthogonalLoop=1;jettySize=auto;html=1;" edge="1" parent="1" source="jSnhueOkiro6R8cV-VZZ-358" target="jSnhueOkiro6R8cV-VZZ-361">
          <mxGeometry relative="1" as="geometry" />
        </mxCell>
        <mxCell id="jSnhueOkiro6R8cV-VZZ-371" style="edgeStyle=orthogonalEdgeStyle;rounded=0;orthogonalLoop=1;jettySize=auto;html=1;entryX=0;entryY=0.5;entryDx=0;entryDy=0;" edge="1" parent="1" source="jSnhueOkiro6R8cV-VZZ-358" target="jSnhueOkiro6R8cV-VZZ-369">
          <mxGeometry relative="1" as="geometry">
            <Array as="points">
              <mxPoint y="2650" />
            </Array>
          </mxGeometry>
        </mxCell>
        <mxCell id="jSnhueOkiro6R8cV-VZZ-372" style="edgeStyle=orthogonalEdgeStyle;rounded=0;orthogonalLoop=1;jettySize=auto;html=1;entryX=0;entryY=0.5;entryDx=0;entryDy=0;" edge="1" parent="1" source="jSnhueOkiro6R8cV-VZZ-358" target="jSnhueOkiro6R8cV-VZZ-370">
          <mxGeometry relative="1" as="geometry">
            <Array as="points">
              <mxPoint y="2710" />
            </Array>
          </mxGeometry>
        </mxCell>
        <mxCell id="jSnhueOkiro6R8cV-VZZ-358" value="Typy zapojení kabelu" style="rounded=0;whiteSpace=wrap;html=1;" vertex="1" parent="1">
          <mxGeometry x="-70" y="2530" width="120" height="60" as="geometry" />
        </mxCell>
        <mxCell id="jSnhueOkiro6R8cV-VZZ-366" value="" style="edgeStyle=orthogonalEdgeStyle;rounded=0;orthogonalLoop=1;jettySize=auto;html=1;" edge="1" parent="1" source="jSnhueOkiro6R8cV-VZZ-360" target="jSnhueOkiro6R8cV-VZZ-364">
          <mxGeometry relative="1" as="geometry" />
        </mxCell>
        <mxCell id="jSnhueOkiro6R8cV-VZZ-360" value="568A" style="rounded=0;whiteSpace=wrap;html=1;" vertex="1" parent="1">
          <mxGeometry x="100" y="2510" width="50" height="30" as="geometry" />
        </mxCell>
        <mxCell id="jSnhueOkiro6R8cV-VZZ-367" value="" style="edgeStyle=orthogonalEdgeStyle;rounded=0;orthogonalLoop=1;jettySize=auto;html=1;" edge="1" parent="1" source="jSnhueOkiro6R8cV-VZZ-361" target="jSnhueOkiro6R8cV-VZZ-365">
          <mxGeometry relative="1" as="geometry" />
        </mxCell>
        <mxCell id="jSnhueOkiro6R8cV-VZZ-361" value="568B" style="rounded=0;whiteSpace=wrap;html=1;" vertex="1" parent="1">
          <mxGeometry x="100" y="2580" width="50" height="30" as="geometry" />
        </mxCell>
        <mxCell id="jSnhueOkiro6R8cV-VZZ-364" value="ZB, Z, OB, M, MB, O, HB, H" style="rounded=0;whiteSpace=wrap;html=1;" vertex="1" parent="1">
          <mxGeometry x="180" y="2510" width="180" height="30" as="geometry" />
        </mxCell>
        <mxCell id="jSnhueOkiro6R8cV-VZZ-365" value="OB, O, ZB, M, MB, Z, HB, H&amp;nbsp;" style="rounded=0;whiteSpace=wrap;html=1;" vertex="1" parent="1">
          <mxGeometry x="180" y="2580" width="180" height="30" as="geometry" />
        </mxCell>
        <mxCell id="jSnhueOkiro6R8cV-VZZ-368" style="edgeStyle=orthogonalEdgeStyle;rounded=0;orthogonalLoop=1;jettySize=auto;html=1;entryX=0.096;entryY=1.019;entryDx=0;entryDy=0;entryPerimeter=0;" edge="1" parent="1" source="jSnhueOkiro6R8cV-VZZ-310" target="jSnhueOkiro6R8cV-VZZ-358">
          <mxGeometry relative="1" as="geometry">
            <Array as="points">
              <mxPoint x="-80" y="2635" />
              <mxPoint x="-58" y="2635" />
            </Array>
          </mxGeometry>
        </mxCell>
        <mxCell id="jSnhueOkiro6R8cV-VZZ-374" style="edgeStyle=orthogonalEdgeStyle;rounded=0;orthogonalLoop=1;jettySize=auto;html=1;entryX=0;entryY=0.5;entryDx=0;entryDy=0;" edge="1" parent="1" source="jSnhueOkiro6R8cV-VZZ-369" target="jSnhueOkiro6R8cV-VZZ-373">
          <mxGeometry relative="1" as="geometry" />
        </mxCell>
        <mxCell id="jSnhueOkiro6R8cV-VZZ-369" value="Přímý kabel&amp;nbsp;&lt;div&gt;(oba konce AA nebo BB)&lt;/div&gt;" style="rounded=0;whiteSpace=wrap;html=1;" vertex="1" parent="1">
          <mxGeometry x="75" y="2630" width="165" height="40" as="geometry" />
        </mxCell>
        <mxCell id="jSnhueOkiro6R8cV-VZZ-376" style="edgeStyle=orthogonalEdgeStyle;rounded=0;orthogonalLoop=1;jettySize=auto;html=1;entryX=0;entryY=0.5;entryDx=0;entryDy=0;" edge="1" parent="1" source="jSnhueOkiro6R8cV-VZZ-370" target="jSnhueOkiro6R8cV-VZZ-373">
          <mxGeometry relative="1" as="geometry">
            <mxPoint x="270" y="2690" as="targetPoint" />
          </mxGeometry>
        </mxCell>
        <mxCell id="jSnhueOkiro6R8cV-VZZ-370" value="Křížený kabel&lt;div&gt;(jeden konec A, druhý B)&lt;/div&gt;" style="rounded=0;whiteSpace=wrap;html=1;" vertex="1" parent="1">
          <mxGeometry x="75" y="2690" width="165" height="40" as="geometry" />
        </mxCell>
        <mxCell id="jSnhueOkiro6R8cV-VZZ-373" value="Řeší AutoMDIX" style="rounded=0;whiteSpace=wrap;html=1;" vertex="1" parent="1">
          <mxGeometry x="300" y="2650" width="120" height="60" as="geometry" />
        </mxCell>
        <mxCell id="jSnhueOkiro6R8cV-VZZ-384" style="edgeStyle=orthogonalEdgeStyle;rounded=0;orthogonalLoop=1;jettySize=auto;html=1;entryX=0.5;entryY=0;entryDx=0;entryDy=0;" edge="1" parent="1" source="jSnhueOkiro6R8cV-VZZ-377" target="jSnhueOkiro6R8cV-VZZ-381">
          <mxGeometry relative="1" as="geometry">
            <Array as="points">
              <mxPoint x="230" y="2980" />
              <mxPoint x="180" y="2980" />
            </Array>
          </mxGeometry>
        </mxCell>
        <mxCell id="jSnhueOkiro6R8cV-VZZ-385" style="edgeStyle=orthogonalEdgeStyle;rounded=0;orthogonalLoop=1;jettySize=auto;html=1;entryX=0.5;entryY=0;entryDx=0;entryDy=0;" edge="1" parent="1" source="jSnhueOkiro6R8cV-VZZ-377" target="jSnhueOkiro6R8cV-VZZ-382">
          <mxGeometry relative="1" as="geometry">
            <Array as="points">
              <mxPoint x="230" y="2980" />
              <mxPoint x="270" y="2980" />
            </Array>
          </mxGeometry>
        </mxCell>
        <mxCell id="jSnhueOkiro6R8cV-VZZ-386" style="edgeStyle=orthogonalEdgeStyle;rounded=0;orthogonalLoop=1;jettySize=auto;html=1;entryX=0.5;entryY=0;entryDx=0;entryDy=0;" edge="1" parent="1" source="jSnhueOkiro6R8cV-VZZ-377" target="jSnhueOkiro6R8cV-VZZ-383">
          <mxGeometry relative="1" as="geometry">
            <Array as="points">
              <mxPoint x="230" y="2980" />
              <mxPoint x="360" y="2980" />
            </Array>
          </mxGeometry>
        </mxCell>
        <mxCell id="jSnhueOkiro6R8cV-VZZ-387" style="edgeStyle=orthogonalEdgeStyle;rounded=0;orthogonalLoop=1;jettySize=auto;html=1;entryX=0.5;entryY=0;entryDx=0;entryDy=0;" edge="1" parent="1" source="jSnhueOkiro6R8cV-VZZ-377" target="jSnhueOkiro6R8cV-VZZ-379">
          <mxGeometry relative="1" as="geometry">
            <Array as="points">
              <mxPoint x="230" y="2980" />
              <mxPoint x="90" y="2980" />
            </Array>
          </mxGeometry>
        </mxCell>
        <mxCell id="jSnhueOkiro6R8cV-VZZ-377" value="Topologie" style="rounded=0;whiteSpace=wrap;html=1;fillColor=#f5f5f5;fontColor=#333333;strokeColor=#666666;" vertex="1" parent="1">
          <mxGeometry x="170" y="2893" width="120" height="60" as="geometry" />
        </mxCell>
        <mxCell id="jSnhueOkiro6R8cV-VZZ-379" value="Hvězda" style="rounded=0;whiteSpace=wrap;html=1;" vertex="1" parent="1">
          <mxGeometry x="60" y="3010" width="60" height="27" as="geometry" />
        </mxCell>
        <mxCell id="jSnhueOkiro6R8cV-VZZ-381" value="Bus" style="rounded=0;whiteSpace=wrap;html=1;" vertex="1" parent="1">
          <mxGeometry x="150" y="3010" width="60" height="27" as="geometry" />
        </mxCell>
        <mxCell id="jSnhueOkiro6R8cV-VZZ-382" value="Kruh" style="rounded=0;whiteSpace=wrap;html=1;" vertex="1" parent="1">
          <mxGeometry x="240" y="3010" width="60" height="27" as="geometry" />
        </mxCell>
        <mxCell id="jSnhueOkiro6R8cV-VZZ-383" value="Mesh" style="rounded=0;whiteSpace=wrap;html=1;" vertex="1" parent="1">
          <mxGeometry x="330" y="3013" width="60" height="27" as="geometry" />
        </mxCell>
        <mxCell id="jSnhueOkiro6R8cV-VZZ-393" style="edgeStyle=orthogonalEdgeStyle;rounded=0;orthogonalLoop=1;jettySize=auto;html=1;" edge="1" parent="1" source="jSnhueOkiro6R8cV-VZZ-389" target="jSnhueOkiro6R8cV-VZZ-391">
          <mxGeometry relative="1" as="geometry" />
        </mxCell>
        <mxCell id="jSnhueOkiro6R8cV-VZZ-394" style="edgeStyle=orthogonalEdgeStyle;rounded=0;orthogonalLoop=1;jettySize=auto;html=1;entryX=0.5;entryY=0;entryDx=0;entryDy=0;" edge="1" parent="1" source="jSnhueOkiro6R8cV-VZZ-389" target="jSnhueOkiro6R8cV-VZZ-392">
          <mxGeometry relative="1" as="geometry" />
        </mxCell>
        <mxCell id="jSnhueOkiro6R8cV-VZZ-389" value="Duplexní režimy" style="rounded=0;whiteSpace=wrap;html=1;fillColor=#f5f5f5;fontColor=#333333;strokeColor=#666666;" vertex="1" parent="1">
          <mxGeometry x="404" y="3105" width="120" height="60" as="geometry" />
        </mxCell>
        <mxCell id="jSnhueOkiro6R8cV-VZZ-391" value="Full-Duplex&lt;div&gt;Současný příjem a přenos dat bez kolizí&lt;/div&gt;" style="rounded=0;whiteSpace=wrap;html=1;" vertex="1" parent="1">
          <mxGeometry x="324" y="3200" width="120" height="60" as="geometry" />
        </mxCell>
        <mxCell id="jSnhueOkiro6R8cV-VZZ-392" value="Half-Duplex&lt;div&gt;Zařízení múže vysílat nebo přijímat, ne ale současně&lt;/div&gt;" style="rounded=0;whiteSpace=wrap;html=1;" vertex="1" parent="1">
          <mxGeometry x="480" y="3200" width="120" height="60" as="geometry" />
        </mxCell>
        <mxCell id="jSnhueOkiro6R8cV-VZZ-399" value="" style="edgeStyle=orthogonalEdgeStyle;rounded=0;orthogonalLoop=1;jettySize=auto;html=1;" edge="1" parent="1" source="jSnhueOkiro6R8cV-VZZ-396" target="jSnhueOkiro6R8cV-VZZ-398">
          <mxGeometry relative="1" as="geometry" />
        </mxCell>
        <mxCell id="jSnhueOkiro6R8cV-VZZ-396" value="Kódování dat" style="rounded=0;whiteSpace=wrap;html=1;fillColor=#f5f5f5;fontColor=#333333;strokeColor=#666666;" vertex="1" parent="1">
          <mxGeometry x="84" y="3110" width="120" height="60" as="geometry" />
        </mxCell>
        <mxCell id="jSnhueOkiro6R8cV-VZZ-398" value="Manchaster kódování" style="rounded=0;whiteSpace=wrap;html=1;" vertex="1" parent="1">
          <mxGeometry x="84" y="3200" width="120" height="30" as="geometry" />
        </mxCell>
        <mxCell id="jSnhueOkiro6R8cV-VZZ-405" style="edgeStyle=orthogonalEdgeStyle;rounded=0;orthogonalLoop=1;jettySize=auto;html=1;" edge="1" parent="1" source="jSnhueOkiro6R8cV-VZZ-400" target="jSnhueOkiro6R8cV-VZZ-404">
          <mxGeometry relative="1" as="geometry" />
        </mxCell>
        <mxCell id="jSnhueOkiro6R8cV-VZZ-406" style="edgeStyle=orthogonalEdgeStyle;rounded=0;orthogonalLoop=1;jettySize=auto;html=1;entryX=0.5;entryY=0;entryDx=0;entryDy=0;" edge="1" parent="1" source="jSnhueOkiro6R8cV-VZZ-400" target="jSnhueOkiro6R8cV-VZZ-401">
          <mxGeometry relative="1" as="geometry">
            <Array as="points">
              <mxPoint x="25" y="3340" />
              <mxPoint x="-50" y="3340" />
            </Array>
          </mxGeometry>
        </mxCell>
        <mxCell id="jSnhueOkiro6R8cV-VZZ-407" style="edgeStyle=orthogonalEdgeStyle;rounded=0;orthogonalLoop=1;jettySize=auto;html=1;entryX=0.5;entryY=0;entryDx=0;entryDy=0;" edge="1" parent="1" source="jSnhueOkiro6R8cV-VZZ-400" target="jSnhueOkiro6R8cV-VZZ-402">
          <mxGeometry relative="1" as="geometry">
            <Array as="points">
              <mxPoint x="25" y="3340" />
              <mxPoint x="110" y="3340" />
            </Array>
          </mxGeometry>
        </mxCell>
        <mxCell id="jSnhueOkiro6R8cV-VZZ-408" style="edgeStyle=orthogonalEdgeStyle;rounded=0;orthogonalLoop=1;jettySize=auto;html=1;entryX=0.5;entryY=0;entryDx=0;entryDy=0;" edge="1" parent="1" source="jSnhueOkiro6R8cV-VZZ-400" target="jSnhueOkiro6R8cV-VZZ-403">
          <mxGeometry relative="1" as="geometry" />
        </mxCell>
        <mxCell id="jSnhueOkiro6R8cV-VZZ-400" value="Rušení" style="rounded=0;whiteSpace=wrap;html=1;" vertex="1" parent="1">
          <mxGeometry x="-35" y="3260" width="120" height="60" as="geometry" />
        </mxCell>
        <mxCell id="jSnhueOkiro6R8cV-VZZ-401" value="EMI&lt;div&gt;Elektromagnetické rušení&amp;nbsp;&lt;/div&gt;&lt;div&gt;(použití STP - ochrana)&lt;/div&gt;" style="rounded=0;whiteSpace=wrap;html=1;" vertex="1" parent="1">
          <mxGeometry x="-125" y="3370" width="150" height="60" as="geometry" />
        </mxCell>
        <mxCell id="jSnhueOkiro6R8cV-VZZ-402" value="Crosstalk" style="rounded=0;whiteSpace=wrap;html=1;" vertex="1" parent="1">
          <mxGeometry x="50" y="3385" width="120" height="30" as="geometry" />
        </mxCell>
        <mxCell id="jSnhueOkiro6R8cV-VZZ-403" value="Šum" style="rounded=0;whiteSpace=wrap;html=1;" vertex="1" parent="1">
          <mxGeometry x="190" y="3385" width="120" height="30" as="geometry" />
        </mxCell>
        <mxCell id="jSnhueOkiro6R8cV-VZZ-404" value="RFI" style="rounded=0;whiteSpace=wrap;html=1;" vertex="1" parent="1">
          <mxGeometry x="-270" y="3385" width="120" height="30" as="geometry" />
        </mxCell>
        <mxCell id="jSnhueOkiro6R8cV-VZZ-417" style="edgeStyle=orthogonalEdgeStyle;rounded=0;orthogonalLoop=1;jettySize=auto;html=1;entryX=0.5;entryY=0;entryDx=0;entryDy=0;" edge="1" parent="1" source="jSnhueOkiro6R8cV-VZZ-410" target="jSnhueOkiro6R8cV-VZZ-411">
          <mxGeometry relative="1" as="geometry" />
        </mxCell>
        <mxCell id="jSnhueOkiro6R8cV-VZZ-410" value="&lt;font style=&quot;font-size: 20px;&quot;&gt;&lt;b&gt;APLIKAČNÍ&lt;/b&gt;&lt;/font&gt;" style="rounded=0;whiteSpace=wrap;html=1;fillColor=#dae8fc;strokeColor=#6c8ebf;" vertex="1" parent="1">
          <mxGeometry x="2083" y="-1158.75" width="120" height="60" as="geometry" />
        </mxCell>
        <mxCell id="jSnhueOkiro6R8cV-VZZ-420" style="edgeStyle=orthogonalEdgeStyle;rounded=0;orthogonalLoop=1;jettySize=auto;html=1;entryX=0.5;entryY=0;entryDx=0;entryDy=0;" edge="1" parent="1" source="jSnhueOkiro6R8cV-VZZ-411" target="jSnhueOkiro6R8cV-VZZ-413">
          <mxGeometry relative="1" as="geometry" />
        </mxCell>
        <mxCell id="jSnhueOkiro6R8cV-VZZ-411" value="Uživatel spustí aplikaci" style="rounded=1;whiteSpace=wrap;html=1;" vertex="1" parent="1">
          <mxGeometry x="2058" y="-1068.75" width="170" height="60" as="geometry" />
        </mxCell>
        <mxCell id="jSnhueOkiro6R8cV-VZZ-421" style="edgeStyle=orthogonalEdgeStyle;rounded=0;orthogonalLoop=1;jettySize=auto;html=1;entryX=0.5;entryY=0;entryDx=0;entryDy=0;" edge="1" parent="1" source="jSnhueOkiro6R8cV-VZZ-413" target="jSnhueOkiro6R8cV-VZZ-414">
          <mxGeometry relative="1" as="geometry" />
        </mxCell>
        <mxCell id="jSnhueOkiro6R8cV-VZZ-413" value="Vrstva připraví data pro přenos" style="rounded=1;whiteSpace=wrap;html=1;" vertex="1" parent="1">
          <mxGeometry x="2055.5" y="-993.75" width="175" height="60" as="geometry" />
        </mxCell>
        <mxCell id="jSnhueOkiro6R8cV-VZZ-422" style="edgeStyle=orthogonalEdgeStyle;rounded=0;orthogonalLoop=1;jettySize=auto;html=1;entryX=0.5;entryY=0;entryDx=0;entryDy=0;" edge="1" parent="1" source="jSnhueOkiro6R8cV-VZZ-414" target="jSnhueOkiro6R8cV-VZZ-415">
          <mxGeometry relative="1" as="geometry" />
        </mxCell>
        <mxCell id="jSnhueOkiro6R8cV-VZZ-414" value="Vrstva určí jaký protokol se bude používat" style="rounded=1;whiteSpace=wrap;html=1;" vertex="1" parent="1">
          <mxGeometry x="2023" y="-918.75" width="240" height="60" as="geometry" />
        </mxCell>
        <mxCell id="jSnhueOkiro6R8cV-VZZ-424" value="" style="edgeStyle=orthogonalEdgeStyle;rounded=0;orthogonalLoop=1;jettySize=auto;html=1;" edge="1" parent="1" source="jSnhueOkiro6R8cV-VZZ-415" target="jSnhueOkiro6R8cV-VZZ-423">
          <mxGeometry relative="1" as="geometry" />
        </mxCell>
        <mxCell id="jSnhueOkiro6R8cV-VZZ-449" style="edgeStyle=orthogonalEdgeStyle;rounded=0;orthogonalLoop=1;jettySize=auto;html=1;entryX=1;entryY=0.5;entryDx=0;entryDy=0;" edge="1" parent="1" source="jSnhueOkiro6R8cV-VZZ-415" target="jSnhueOkiro6R8cV-VZZ-448">
          <mxGeometry relative="1" as="geometry" />
        </mxCell>
        <mxCell id="jSnhueOkiro6R8cV-VZZ-415" value="Požadavek se pošle do další vrstvy" style="rounded=1;whiteSpace=wrap;html=1;" vertex="1" parent="1">
          <mxGeometry x="2043" y="-843.75" width="200" height="60" as="geometry" />
        </mxCell>
        <mxCell id="jSnhueOkiro6R8cV-VZZ-427" value="" style="edgeStyle=orthogonalEdgeStyle;rounded=0;orthogonalLoop=1;jettySize=auto;html=1;" edge="1" parent="1" source="jSnhueOkiro6R8cV-VZZ-423" target="jSnhueOkiro6R8cV-VZZ-426">
          <mxGeometry relative="1" as="geometry" />
        </mxCell>
        <mxCell id="jSnhueOkiro6R8cV-VZZ-423" value="&lt;b&gt;&lt;font style=&quot;font-size: 20px;&quot;&gt;PREZENČNÍ&lt;/font&gt;&lt;/b&gt;" style="rounded=0;whiteSpace=wrap;html=1;fillColor=#d5e8d4;strokeColor=#82b366;" vertex="1" parent="1">
          <mxGeometry x="2083" y="-728.75" width="120" height="60" as="geometry" />
        </mxCell>
        <mxCell id="jSnhueOkiro6R8cV-VZZ-430" value="" style="edgeStyle=orthogonalEdgeStyle;rounded=0;orthogonalLoop=1;jettySize=auto;html=1;" edge="1" parent="1" source="jSnhueOkiro6R8cV-VZZ-426" target="jSnhueOkiro6R8cV-VZZ-429">
          <mxGeometry relative="1" as="geometry" />
        </mxCell>
        <mxCell id="jSnhueOkiro6R8cV-VZZ-451" style="edgeStyle=orthogonalEdgeStyle;rounded=0;orthogonalLoop=1;jettySize=auto;html=1;entryX=1;entryY=0.5;entryDx=0;entryDy=0;" edge="1" parent="1" source="jSnhueOkiro6R8cV-VZZ-426" target="jSnhueOkiro6R8cV-VZZ-450">
          <mxGeometry relative="1" as="geometry" />
        </mxCell>
        <mxCell id="jSnhueOkiro6R8cV-VZZ-426" value="Vrstva požadavek zakóduje nebo zašifruje" style="rounded=1;whiteSpace=wrap;html=1;" vertex="1" parent="1">
          <mxGeometry x="2018" y="-618.75" width="250" height="60" as="geometry" />
        </mxCell>
        <mxCell id="jSnhueOkiro6R8cV-VZZ-432" value="" style="edgeStyle=orthogonalEdgeStyle;rounded=0;orthogonalLoop=1;jettySize=auto;html=1;" edge="1" parent="1" source="jSnhueOkiro6R8cV-VZZ-429" target="jSnhueOkiro6R8cV-VZZ-431">
          <mxGeometry relative="1" as="geometry" />
        </mxCell>
        <mxCell id="jSnhueOkiro6R8cV-VZZ-429" value="&lt;b&gt;&lt;font style=&quot;font-size: 20px;&quot;&gt;RELAČNÍ&lt;/font&gt;&lt;/b&gt;" style="rounded=0;whiteSpace=wrap;html=1;fillColor=#ffe6cc;strokeColor=#d79b00;" vertex="1" parent="1">
          <mxGeometry x="2083" y="-508.75" width="120" height="60" as="geometry" />
        </mxCell>
        <mxCell id="jSnhueOkiro6R8cV-VZZ-435" value="" style="edgeStyle=orthogonalEdgeStyle;rounded=0;orthogonalLoop=1;jettySize=auto;html=1;" edge="1" parent="1" source="jSnhueOkiro6R8cV-VZZ-431" target="jSnhueOkiro6R8cV-VZZ-433">
          <mxGeometry relative="1" as="geometry" />
        </mxCell>
        <mxCell id="jSnhueOkiro6R8cV-VZZ-431" value="Naváže a udrží spojení mezi klientem a serverem" style="rounded=1;whiteSpace=wrap;html=1;" vertex="1" parent="1">
          <mxGeometry x="2033" y="-398.75" width="220" height="60" as="geometry" />
        </mxCell>
        <mxCell id="jSnhueOkiro6R8cV-VZZ-439" value="" style="edgeStyle=orthogonalEdgeStyle;rounded=0;orthogonalLoop=1;jettySize=auto;html=1;" edge="1" parent="1" source="jSnhueOkiro6R8cV-VZZ-433" target="jSnhueOkiro6R8cV-VZZ-437">
          <mxGeometry relative="1" as="geometry" />
        </mxCell>
        <mxCell id="jSnhueOkiro6R8cV-VZZ-433" value="&lt;b&gt;&lt;font style=&quot;font-size: 20px;&quot;&gt;TRANSPORTNÍ&lt;/font&gt;&lt;/b&gt;" style="rounded=0;whiteSpace=wrap;html=1;fillColor=#fff2cc;strokeColor=#d6b656;" vertex="1" parent="1">
          <mxGeometry x="2058" y="-278.75" width="170" height="60" as="geometry" />
        </mxCell>
        <mxCell id="jSnhueOkiro6R8cV-VZZ-438" value="" style="edgeStyle=orthogonalEdgeStyle;rounded=0;orthogonalLoop=1;jettySize=auto;html=1;" edge="1" parent="1" source="jSnhueOkiro6R8cV-VZZ-436" target="jSnhueOkiro6R8cV-VZZ-437">
          <mxGeometry relative="1" as="geometry" />
        </mxCell>
        <mxCell id="jSnhueOkiro6R8cV-VZZ-453" style="edgeStyle=orthogonalEdgeStyle;rounded=0;orthogonalLoop=1;jettySize=auto;html=1;entryX=1;entryY=0.5;entryDx=0;entryDy=0;" edge="1" parent="1" source="jSnhueOkiro6R8cV-VZZ-436" target="jSnhueOkiro6R8cV-VZZ-452">
          <mxGeometry relative="1" as="geometry" />
        </mxCell>
        <mxCell id="jSnhueOkiro6R8cV-VZZ-436" value="Rozdělí požadavek na segmenty" style="rounded=1;whiteSpace=wrap;html=1;" vertex="1" parent="1">
          <mxGeometry x="2043" y="-198.75" width="200" height="60" as="geometry" />
        </mxCell>
        <mxCell id="jSnhueOkiro6R8cV-VZZ-441" value="" style="edgeStyle=orthogonalEdgeStyle;rounded=0;orthogonalLoop=1;jettySize=auto;html=1;" edge="1" parent="1" source="jSnhueOkiro6R8cV-VZZ-437" target="jSnhueOkiro6R8cV-VZZ-440">
          <mxGeometry relative="1" as="geometry" />
        </mxCell>
        <mxCell id="jSnhueOkiro6R8cV-VZZ-437" value="Přidá TCP hlavičku:&lt;div&gt;Zdrojový port&lt;/div&gt;&lt;div&gt;Cílový port&lt;/div&gt;&lt;div&gt;Číslo sekvence&lt;/div&gt;&lt;div&gt;Checksum&lt;/div&gt;&lt;div&gt;Potvrzení o doručení&lt;/div&gt;" style="rounded=1;whiteSpace=wrap;html=1;" vertex="1" parent="1">
          <mxGeometry x="2083" y="-108.75" width="120" height="120" as="geometry" />
        </mxCell>
        <mxCell id="jSnhueOkiro6R8cV-VZZ-443" value="" style="edgeStyle=orthogonalEdgeStyle;rounded=0;orthogonalLoop=1;jettySize=auto;html=1;" edge="1" parent="1" source="jSnhueOkiro6R8cV-VZZ-440" target="jSnhueOkiro6R8cV-VZZ-442">
          <mxGeometry relative="1" as="geometry" />
        </mxCell>
        <mxCell id="jSnhueOkiro6R8cV-VZZ-440" value="Provede 3-way Handshake" style="rounded=1;whiteSpace=wrap;html=1;" vertex="1" parent="1">
          <mxGeometry x="2083" y="41.25" width="120" height="60" as="geometry" />
        </mxCell>
        <mxCell id="jSnhueOkiro6R8cV-VZZ-445" value="" style="edgeStyle=orthogonalEdgeStyle;rounded=0;orthogonalLoop=1;jettySize=auto;html=1;" edge="1" parent="1" source="jSnhueOkiro6R8cV-VZZ-442" target="jSnhueOkiro6R8cV-VZZ-444">
          <mxGeometry relative="1" as="geometry" />
        </mxCell>
        <mxCell id="jSnhueOkiro6R8cV-VZZ-442" value="&lt;b&gt;&lt;font style=&quot;font-size: 20px;&quot;&gt;SÍŤOVÁ&lt;/font&gt;&lt;/b&gt;" style="rounded=0;whiteSpace=wrap;html=1;fillColor=#f8cecc;strokeColor=#b85450;" vertex="1" parent="1">
          <mxGeometry x="2083" y="131.25" width="120" height="60" as="geometry" />
        </mxCell>
        <mxCell id="jSnhueOkiro6R8cV-VZZ-447" style="edgeStyle=orthogonalEdgeStyle;rounded=0;orthogonalLoop=1;jettySize=auto;html=1;entryX=1;entryY=0.5;entryDx=0;entryDy=0;" edge="1" parent="1" source="jSnhueOkiro6R8cV-VZZ-444" target="jSnhueOkiro6R8cV-VZZ-446">
          <mxGeometry relative="1" as="geometry" />
        </mxCell>
        <mxCell id="jSnhueOkiro6R8cV-VZZ-455" value="" style="edgeStyle=orthogonalEdgeStyle;rounded=0;orthogonalLoop=1;jettySize=auto;html=1;" edge="1" parent="1" source="jSnhueOkiro6R8cV-VZZ-444" target="jSnhueOkiro6R8cV-VZZ-454">
          <mxGeometry relative="1" as="geometry" />
        </mxCell>
        <mxCell id="jSnhueOkiro6R8cV-VZZ-444" value="Přidá IP hlavičku&lt;div&gt;Zdrojová IP&lt;/div&gt;&lt;div&gt;Cílová IP&lt;/div&gt;&lt;div&gt;TTL&lt;/div&gt;&lt;div&gt;Protokol&lt;/div&gt;" style="rounded=1;whiteSpace=wrap;html=1;" vertex="1" parent="1">
          <mxGeometry x="2083" y="231.25" width="120" height="100" as="geometry" />
        </mxCell>
        <mxCell id="jSnhueOkiro6R8cV-VZZ-446" value="Packet" style="rhombus;whiteSpace=wrap;html=1;fillColor=#f8cecc;strokeColor=#b85450;" vertex="1" parent="1">
          <mxGeometry x="1873" y="241.25" width="80" height="80" as="geometry" />
        </mxCell>
        <mxCell id="jSnhueOkiro6R8cV-VZZ-448" value="Data" style="rhombus;whiteSpace=wrap;html=1;fillColor=#cce5ff;strokeColor=#36393d;" vertex="1" parent="1">
          <mxGeometry x="1873" y="-853.75" width="80" height="80" as="geometry" />
        </mxCell>
        <mxCell id="jSnhueOkiro6R8cV-VZZ-450" value="Šifrovaná data" style="rhombus;whiteSpace=wrap;html=1;fillColor=#d5e8d4;strokeColor=#82b366;" vertex="1" parent="1">
          <mxGeometry x="1868" y="-633.75" width="90" height="90" as="geometry" />
        </mxCell>
        <mxCell id="jSnhueOkiro6R8cV-VZZ-452" value="Segmenty" style="rhombus;whiteSpace=wrap;html=1;fillColor=#fff2cc;strokeColor=#d6b656;" vertex="1" parent="1">
          <mxGeometry x="1873" y="-208.75" width="80" height="80" as="geometry" />
        </mxCell>
        <mxCell id="jSnhueOkiro6R8cV-VZZ-457" value="" style="edgeStyle=orthogonalEdgeStyle;rounded=0;orthogonalLoop=1;jettySize=auto;html=1;" edge="1" parent="1" source="jSnhueOkiro6R8cV-VZZ-454" target="jSnhueOkiro6R8cV-VZZ-456">
          <mxGeometry relative="1" as="geometry" />
        </mxCell>
        <mxCell id="jSnhueOkiro6R8cV-VZZ-454" value="&lt;font style=&quot;font-size: 20px;&quot;&gt;&lt;b&gt;LINKOVÁ&lt;/b&gt;&lt;/font&gt;" style="rounded=0;whiteSpace=wrap;html=1;fillColor=#e1d5e7;strokeColor=#9673a6;" vertex="1" parent="1">
          <mxGeometry x="2083" y="381.25" width="120" height="60" as="geometry" />
        </mxCell>
        <mxCell id="jSnhueOkiro6R8cV-VZZ-459" value="" style="edgeStyle=orthogonalEdgeStyle;rounded=0;orthogonalLoop=1;jettySize=auto;html=1;" edge="1" parent="1" source="jSnhueOkiro6R8cV-VZZ-456" target="jSnhueOkiro6R8cV-VZZ-458">
          <mxGeometry relative="1" as="geometry" />
        </mxCell>
        <mxCell id="jSnhueOkiro6R8cV-VZZ-456" value="Přidá MAC adresy" style="rounded=1;whiteSpace=wrap;html=1;" vertex="1" parent="1">
          <mxGeometry x="2083" y="481.25" width="120" height="60" as="geometry" />
        </mxCell>
        <mxCell id="jSnhueOkiro6R8cV-VZZ-462" style="edgeStyle=orthogonalEdgeStyle;rounded=0;orthogonalLoop=1;jettySize=auto;html=1;entryX=1;entryY=0.5;entryDx=0;entryDy=0;" edge="1" parent="1" source="jSnhueOkiro6R8cV-VZZ-458" target="jSnhueOkiro6R8cV-VZZ-461">
          <mxGeometry relative="1" as="geometry" />
        </mxCell>
        <mxCell id="jSnhueOkiro6R8cV-VZZ-464" value="" style="edgeStyle=orthogonalEdgeStyle;rounded=0;orthogonalLoop=1;jettySize=auto;html=1;" edge="1" parent="1" source="jSnhueOkiro6R8cV-VZZ-458" target="jSnhueOkiro6R8cV-VZZ-463">
          <mxGeometry relative="1" as="geometry" />
        </mxCell>
        <mxCell id="jSnhueOkiro6R8cV-VZZ-458" value="Vytvoří frame obsahující IP packet" style="rounded=1;whiteSpace=wrap;html=1;" vertex="1" parent="1">
          <mxGeometry x="2058" y="586.25" width="170" height="60" as="geometry" />
        </mxCell>
        <mxCell id="jSnhueOkiro6R8cV-VZZ-461" value="Frame" style="rhombus;whiteSpace=wrap;html=1;fillColor=#e1d5e7;strokeColor=#9673a6;" vertex="1" parent="1">
          <mxGeometry x="1873" y="576.25" width="80" height="80" as="geometry" />
        </mxCell>
        <mxCell id="jSnhueOkiro6R8cV-VZZ-467" value="" style="edgeStyle=orthogonalEdgeStyle;rounded=0;orthogonalLoop=1;jettySize=auto;html=1;" edge="1" parent="1" source="jSnhueOkiro6R8cV-VZZ-463" target="jSnhueOkiro6R8cV-VZZ-466">
          <mxGeometry relative="1" as="geometry" />
        </mxCell>
        <mxCell id="jSnhueOkiro6R8cV-VZZ-463" value="Přidá CRC" style="rounded=1;whiteSpace=wrap;html=1;" vertex="1" parent="1">
          <mxGeometry x="2083" y="676.25" width="120" height="60" as="geometry" />
        </mxCell>
        <mxCell id="jSnhueOkiro6R8cV-VZZ-471" value="" style="edgeStyle=orthogonalEdgeStyle;rounded=0;orthogonalLoop=1;jettySize=auto;html=1;" edge="1" parent="1" source="jSnhueOkiro6R8cV-VZZ-466" target="jSnhueOkiro6R8cV-VZZ-470">
          <mxGeometry relative="1" as="geometry" />
        </mxCell>
        <mxCell id="jSnhueOkiro6R8cV-VZZ-466" value="&lt;b&gt;&lt;font style=&quot;font-size: 20px;&quot;&gt;FYZICKÁ&lt;/font&gt;&lt;/b&gt;" style="rounded=0;whiteSpace=wrap;html=1;fillColor=#f5f5f5;fontColor=#333333;strokeColor=#666666;" vertex="1" parent="1">
          <mxGeometry x="2083" y="771.25" width="120" height="60" as="geometry" />
        </mxCell>
        <mxCell id="jSnhueOkiro6R8cV-VZZ-473" value="" style="edgeStyle=orthogonalEdgeStyle;rounded=0;orthogonalLoop=1;jettySize=auto;html=1;" edge="1" parent="1" source="jSnhueOkiro6R8cV-VZZ-470" target="jSnhueOkiro6R8cV-VZZ-472">
          <mxGeometry relative="1" as="geometry" />
        </mxCell>
        <mxCell id="jSnhueOkiro6R8cV-VZZ-470" value="Převádí frame na elektrické impulsy" style="rounded=1;whiteSpace=wrap;html=1;" vertex="1" parent="1">
          <mxGeometry x="2083" y="880" width="120" height="60" as="geometry" />
        </mxCell>
        <mxCell id="jSnhueOkiro6R8cV-VZZ-475" style="edgeStyle=orthogonalEdgeStyle;rounded=0;orthogonalLoop=1;jettySize=auto;html=1;entryX=1;entryY=0.5;entryDx=0;entryDy=0;" edge="1" parent="1" source="jSnhueOkiro6R8cV-VZZ-472" target="jSnhueOkiro6R8cV-VZZ-474">
          <mxGeometry relative="1" as="geometry" />
        </mxCell>
        <mxCell id="jSnhueOkiro6R8cV-VZZ-472" value="Posílá bity přes kabel" style="rounded=1;whiteSpace=wrap;html=1;" vertex="1" parent="1">
          <mxGeometry x="2083" y="980" width="120" height="60" as="geometry" />
        </mxCell>
        <mxCell id="jSnhueOkiro6R8cV-VZZ-474" value="Bity" style="rhombus;whiteSpace=wrap;html=1;fillColor=#f5f5f5;fontColor=#333333;strokeColor=#666666;" vertex="1" parent="1">
          <mxGeometry x="1873" y="970" width="80" height="80" as="geometry" />
        </mxCell>
        <mxCell id="jSnhueOkiro6R8cV-VZZ-477" value="" style="endArrow=none;html=1;rounded=0;" edge="1" parent="1">
          <mxGeometry width="50" height="50" relative="1" as="geometry">
            <mxPoint x="2480" y="1130" as="sourcePoint" />
            <mxPoint x="1770" y="-1160" as="targetPoint" />
            <Array as="points">
              <mxPoint x="1770" y="1130" />
            </Array>
          </mxGeometry>
        </mxCell>
      </root>
    </mxGraphModel>
  </diagram>
</mxfile>
